<svg width="20" height="18" viewBox="0 0 20 18" fill="none" xmlns="http://www.w3.org/2000/svg">
<path d="M0.932106 3.45915H3.70771C4.08055 4.37054 4.97123 5.03337 6.02762 5.03337C7.084 5.03337 7.97468 4.39125 8.34753 3.45915H18.7457C19.2635 3.45915 19.6778 3.04488 19.6778 2.52704C19.6778 2.00921 19.2635 1.59494 18.7457 1.59494H8.34753C7.97468 0.642117 7.084 0 6.02762 0C4.97123 0 4.08055 0.642117 3.70771 1.57422H0.932106C0.414269 1.57422 0 1.98849 0 2.50633C0 3.02417 0.414269 3.45915 0.932106 3.45915Z" fill="#A5A5A5"/>
<path d="M18.7457 8.07825H15.9701C15.5972 7.16686 14.7066 6.50403 13.6502 6.50403C12.5938 6.50403 11.7031 7.14615 11.3303 8.07825H0.932106C0.414269 8.07825 0 8.49252 0 9.01036C0 9.52819 0.414269 9.94246 0.932106 9.94246H11.3303C11.7031 10.8539 12.5938 11.5167 13.6502 11.5167C14.7066 11.5167 15.5972 10.8746 15.9701 9.94246H18.7457C19.2635 9.94246 19.6778 9.52819 19.6778 9.01036C19.6778 8.49252 19.2635 8.07825 18.7457 8.07825Z" fill="#A5A5A5"/>
<path d="M18.7457 14.5616H8.34753C7.97468 13.6502 7.084 12.9874 6.02762 12.9874C4.97123 12.9874 4.08055 13.6295 3.70771 14.5616H0.932106C0.414269 14.5616 0 14.9759 0 15.4937C0 16.0115 0.414269 16.4258 0.932106 16.4258H3.70771C4.08055 17.3372 4.97123 18 6.02762 18C7.084 18 7.97468 17.3579 8.34753 16.4258H18.7457C19.2635 16.4258 19.6778 16.0115 19.6778 15.4937C19.6778 14.9966 19.2635 14.5616 18.7457 14.5616Z" fill="#A5A5A5"/>
</svg>
