<svg width="42" height="42" viewBox="0 0 42 42" fill="none" xmlns="http://www.w3.org/2000/svg">
<path d="M18 1.73205C19.8564 0.660254 22.1436 0.660254 24 1.73205L36.1865 8.76795C38.0429 9.83975 39.1865 11.8205 39.1865 13.9641V28.0359C39.1865 30.1795 38.0429 32.1603 36.1865 33.2321L24 40.2679C22.1436 41.3397 19.8564 41.3397 18 40.2679L5.81347 33.2321C3.95706 32.1603 2.81347 30.1795 2.81347 28.0359V13.9641C2.81347 11.8205 3.95706 9.83975 5.81347 8.76795L18 1.73205Z" fill="#3AAFE4"/>
<g clip-path="url(#clip0_8_3)">
<path d="M20.3232 29C21.5306 29 22.5406 28.1393 22.7726 27H17.8739C18.106 28.1393 19.116 29 20.3232 29Z" fill="white"/>
<path d="M24.9979 20.9994C24.9952 20.9994 24.9925 21 24.9899 21C22.4172 21 20.3232 18.9066 20.3232 16.3334C20.3232 15.626 20.4859 14.9573 20.7693 14.356C20.6225 14.342 20.4739 14.3334 20.3232 14.3334C17.746 14.3334 15.6566 16.4226 15.6566 19V20.8586C15.6566 22.178 15.0786 23.4233 14.0646 24.2806C13.7266 24.5693 13.5765 25.0293 13.6979 25.478C13.8392 26 14.3552 26.3334 14.8966 26.3334H25.7466C26.3146 26.3334 26.85 25.9653 26.9652 25.4087C27.0546 24.978 26.9012 24.548 26.5672 24.2673C25.5979 23.4547 25.0372 22.2606 24.9979 20.9994Z" fill="white"/>
<path d="M28.3232 16.3334C28.3232 18.1743 26.8309 19.6666 24.9899 19.6666C23.1489 19.6666 21.6566 18.1743 21.6566 16.3334C21.6566 14.4924 23.1489 13 24.9899 13C26.8309 13 28.3232 14.4924 28.3232 16.3334Z" fill="white"/>
</g>
<defs>
<clipPath id="clip0_8_3">
<rect width="16" height="16" fill="white" transform="translate(13 13)"/>
</clipPath>
</defs>
</svg>
