<svg width="42" height="42" viewBox="0 0 42 42" fill="none" xmlns="http://www.w3.org/2000/svg">
<path d="M18 1.73205C19.8564 0.660254 22.1436 0.660254 24 1.73205L36.1865 8.76795C38.0429 9.83975 39.1865 11.8205 39.1865 13.9641V28.0359C39.1865 30.1795 38.0429 32.1603 36.1865 33.2321L24 40.2679C22.1436 41.3397 19.8564 41.3397 18 40.2679L5.81347 33.2321C3.95706 32.1603 2.81347 30.1795 2.81347 28.0359V13.9641C2.81347 11.8205 3.95706 9.83975 5.81347 8.76795L18 1.73205Z" fill="#824AED"/>
<path d="M24.8246 14H17.4254C16.0858 14 15 15.0761 15 16.4081V27.4275C15 27.895 15.54 28.1685 15.9211 27.8848L18.2339 26.1625H24.8246C26.1642 26.1625 27.25 25.0864 27.25 23.7544V16.4081C27.25 15.0781 26.1661 14 24.8246 14V14ZM20.5493 23.1016H18.042C17.724 23.1016 17.4663 22.8458 17.4663 22.5301C17.4663 22.2144 17.724 21.9585 18.042 21.9585H20.5493C20.8672 21.9585 21.1249 22.2144 21.1249 22.5301C21.1249 22.8458 20.8672 23.1016 20.5493 23.1016ZM24.208 20.6529H18.042C17.724 20.6529 17.4663 20.3969 17.4663 20.0813C17.4663 19.7656 17.724 19.5098 18.042 19.5098H24.208C24.5258 19.5098 24.7837 19.7656 24.7837 20.0813C24.7837 20.3969 24.526 20.6529 24.208 20.6529ZM24.208 18.204H18.042C17.724 18.204 17.4663 17.9482 17.4663 17.6325C17.4663 17.3169 17.724 17.0609 18.042 17.0609H24.208C24.5258 17.0609 24.7837 17.3169 24.7837 17.6325C24.7837 17.9482 24.526 18.204 24.208 18.204Z" fill="white"/>
</svg>
