<svg width="65" height="65" viewBox="0 0 65 65" fill="none" xmlns="http://www.w3.org/2000/svg">
<path opacity="0.3" d="M27.5 2.88675C30.594 1.10042 34.406 1.10042 37.5 2.88675L55.6458 13.3632C58.7398 15.1496 60.6458 18.4508 60.6458 22.0235V42.9765C60.6458 46.5492 58.7398 49.8504 55.6458 51.6368L37.5 62.1133C34.406 63.8996 30.594 63.8996 27.5 62.1133L9.35417 51.6367C6.26016 49.8504 4.35417 46.5492 4.35417 42.9765V22.0235C4.35417 18.4508 6.26016 15.1496 9.35417 13.3632L27.5 2.88675Z" fill="white"/>
<g clip-path="url(#clip0_8_6)">
<path d="M20.8382 28.2588C20.9854 28.7634 21.1897 29.25 21.448 29.7066L20.7121 30.6348C20.4718 30.9381 20.4988 31.3707 20.7692 31.644L22.0367 32.9116C22.3101 33.1849 22.7426 33.2089 23.046 32.9686L23.9681 32.2387C24.4427 32.5121 24.9473 32.7253 25.473 32.8755L25.6111 34.062C25.6562 34.4464 25.9806 34.7348 26.3651 34.7348H28.1583C28.5428 34.7348 28.8672 34.4464 28.9122 34.062L29.0444 32.9175C29.6091 32.7704 30.1498 32.5511 30.6574 32.2657L31.5495 32.9716C31.8529 33.2119 32.2854 33.1849 32.5587 32.9145L33.8263 31.647C34.0996 31.3736 34.1237 30.9411 33.8834 30.6377L33.1895 29.7576C33.4779 29.259 33.7032 28.7274 33.8533 28.1717L34.9227 28.0485C35.3072 28.0035 35.5955 27.6791 35.5955 27.2946V25.5014C35.5955 25.1169 35.3071 24.7925 34.9227 24.7474L33.8684 24.6243C33.7242 24.0746 33.5079 23.549 33.2316 23.0564L33.8804 22.2363C34.1207 21.933 34.0937 21.5004 33.8233 21.2271L32.5588 19.9625C32.2854 19.6892 31.8529 19.6652 31.5495 19.9055L30.7535 20.5362C30.2369 20.2329 29.6842 20.0016 29.1045 19.8454L28.9843 18.8151C28.9393 18.4306 28.6149 18.1423 28.2304 18.1423H26.4372C26.0527 18.1423 25.7283 18.4306 25.6833 18.8151L25.5631 19.8454C24.9684 20.0046 24.4007 20.2449 23.872 20.5603L23.046 19.9055C22.7426 19.6652 22.3101 19.6922 22.0368 19.9625L20.7692 21.2301C20.4959 21.5034 20.4718 21.936 20.7121 22.2393L21.403 23.1134C21.1266 23.612 20.9164 24.1437 20.7782 24.6964L19.6728 24.8225C19.2884 24.8676 19 25.192 19 25.5765V27.3697C19 27.7542 19.2884 28.0786 19.6728 28.1236L20.8382 28.2588ZM27.3353 23.4078C28.9693 23.4078 30.2999 24.7385 30.2999 26.3725C30.2999 28.0065 28.9693 29.3371 27.3353 29.3371C25.7013 29.3371 24.3706 28.0065 24.3706 26.3725C24.3706 24.7385 25.7013 23.4078 27.3353 23.4078Z" fill="white"/>
<path d="M45.0632 28.7003L44.117 27.9014C43.8257 27.6551 43.3961 27.6671 43.1198 27.9284L42.5971 28.418C42.1556 28.2047 41.6871 28.0545 41.2034 27.9674L41.0563 27.2465C40.9812 26.8741 40.6358 26.6158 40.2573 26.6458L39.0227 26.7509C38.6443 26.784 38.3469 27.0934 38.3349 27.4748L38.3109 28.2077C37.8363 28.3789 37.3887 28.6132 36.9802 28.9076L36.3555 28.4931C36.037 28.2828 35.6135 28.3429 35.3672 28.6343L34.5682 29.5864C34.3219 29.8778 34.3339 30.3073 34.5952 30.5837L35.1419 31.1664C34.9527 31.5929 34.8175 32.0405 34.7394 32.5L33.9585 32.6592C33.586 32.7343 33.3277 33.0797 33.3577 33.4582L33.4628 34.6928C33.4959 35.0712 33.8053 35.3686 34.1867 35.3806L35.0308 35.4076C35.184 35.8101 35.3853 36.1916 35.6285 36.549L35.157 37.2609C34.9467 37.5793 35.0068 38.0028 35.2981 38.2491L36.2443 39.0481C36.5357 39.2944 36.9652 39.2824 37.2416 39.0211L37.8603 38.4414C38.2658 38.6306 38.6923 38.7718 39.1309 38.8559L39.3021 39.7029C39.3772 40.0754 39.7226 40.3337 40.1011 40.3037L41.3356 40.1985C41.7141 40.1655 42.0115 39.8561 42.0235 39.4746L42.0505 38.6456C42.5011 38.4864 42.9276 38.2701 43.321 38.0028L44.0029 38.4534C44.3213 38.6636 44.7448 38.6036 44.9911 38.3122L45.7901 37.366C46.0364 37.0747 46.0244 36.6451 45.7631 36.3688L45.2134 35.7861C45.4147 35.3596 45.5619 34.909 45.6459 34.4464L46.3968 34.2932C46.7693 34.2181 47.0276 33.8727 46.9976 33.4942L46.8925 32.2597C46.8594 31.8812 46.55 31.5839 46.1686 31.5718L45.4146 31.5478C45.2584 31.1093 45.0482 30.6948 44.7869 30.3103L45.1983 29.6915C45.4146 29.3732 45.3546 28.9466 45.0632 28.7003ZM40.4105 35.8371C39.0768 35.9513 37.8993 34.9571 37.7882 33.6234C37.674 32.2898 38.6683 31.1123 40.0019 31.0012C41.3356 30.887 42.5131 31.8813 42.6242 33.2149C42.7384 34.5486 41.7441 35.726 40.4105 35.8371Z" fill="white"/>
<path d="M25.1576 39.1593C24.7791 39.1984 24.4878 39.5167 24.4848 39.8982L24.4757 40.6582C24.4697 41.0396 24.7521 41.364 25.1306 41.4121L25.6892 41.4842C25.7824 41.8236 25.9145 42.148 26.0857 42.4544L25.7253 42.899C25.485 43.1963 25.503 43.6229 25.7703 43.8962L26.302 44.4399C26.5693 44.7132 26.9959 44.7433 27.2992 44.509L27.7468 44.1635C28.0621 44.3498 28.3956 44.497 28.744 44.5991L28.8041 45.1758C28.8431 45.5543 29.1615 45.8456 29.543 45.8486L30.3029 45.8576C30.6844 45.8636 31.0088 45.5813 31.0569 45.2028L31.126 44.6561C31.5045 44.563 31.8649 44.4219 32.2073 44.2356L32.6278 44.575C32.9252 44.8153 33.3517 44.7973 33.6251 44.53L34.1688 43.9983C34.4421 43.731 34.4721 43.3045 34.2379 43.0011L33.9164 42.5835C34.1147 42.2531 34.2679 41.9017 34.373 41.5322L34.8716 41.4812C35.2501 41.4421 35.5414 41.1237 35.5445 40.7423L35.5534 39.9823C35.5595 39.6009 35.2771 39.2764 34.8987 39.2284L34.412 39.1653C34.3189 38.7988 34.1808 38.4444 34.0006 38.114L34.3039 37.7415C34.5442 37.4442 34.5262 37.0176 34.2589 36.7443L33.7272 36.2006C33.4599 35.9273 33.0333 35.8972 32.73 36.1315L32.3665 36.4109C32.0241 36.2036 31.6576 36.0444 31.2732 35.9363L31.2251 35.4647C31.186 35.0862 30.8677 34.7949 30.4862 34.7919L29.7262 34.7829C29.3448 34.7769 29.0204 35.0592 28.9723 35.4377L28.9122 35.9063C28.5157 36.0084 28.1343 36.1646 27.7798 36.3688L27.4044 36.0625C27.107 35.8222 26.6804 35.8402 26.4071 36.1075L25.8604 36.6422C25.5871 36.9095 25.557 37.3361 25.7913 37.6394L26.1127 38.0539C25.9265 38.3844 25.7793 38.7358 25.6832 39.1052L25.1576 39.1593ZM30.0627 38.3002C31.153 38.3122 32.0271 39.2104 32.0151 40.3007C32.0031 41.3911 31.1049 42.2651 30.0146 42.2531C28.9242 42.2411 28.0502 41.343 28.0621 40.2526C28.0742 39.1623 28.9723 38.2882 30.0627 38.3002Z" fill="white"/>
</g>
<defs>
<clipPath id="clip0_8_6">
<rect width="28" height="28" fill="white" transform="translate(19 18)"/>
</clipPath>
</defs>
</svg>
