<svg width="55" height="17" viewBox="0 0 55 17" fill="none" xmlns="http://www.w3.org/2000/svg">
<path d="M10.5264 13.0996V16H2.62012V13.0996H10.5264ZM3.96289 0.359375V16H0.192383V0.359375H3.96289ZM24.6631 7.86816V8.50195C24.6631 9.69792 24.4948 10.7721 24.1582 11.7246C23.8288 12.6699 23.3597 13.4792 22.751 14.1523C22.1423 14.8184 21.4225 15.3304 20.5918 15.6885C19.7611 16.0394 18.8444 16.2148 17.8418 16.2148C16.832 16.2148 15.9082 16.0394 15.0703 15.6885C14.2396 15.3304 13.5163 14.8184 12.9004 14.1523C12.2917 13.4792 11.819 12.6699 11.4824 11.7246C11.153 10.7721 10.9883 9.69792 10.9883 8.50195V7.86816C10.9883 6.6722 11.153 5.59798 11.4824 4.64551C11.819 3.69303 12.2881 2.88379 12.8896 2.21777C13.4984 1.5446 14.2181 1.03255 15.0488 0.681641C15.8867 0.323568 16.8105 0.144531 17.8203 0.144531C18.8229 0.144531 19.7396 0.323568 20.5703 0.681641C21.4082 1.03255 22.1315 1.5446 22.7402 2.21777C23.349 2.88379 23.8216 3.69303 24.1582 4.64551C24.4948 5.59798 24.6631 6.6722 24.6631 7.86816ZM20.8389 8.50195V7.84668C20.8389 7.07324 20.7708 6.3929 20.6348 5.80566C20.5059 5.21126 20.3125 4.71354 20.0547 4.3125C19.7969 3.91146 19.4782 3.61068 19.0986 3.41016C18.7262 3.20247 18.3001 3.09863 17.8203 3.09863C17.319 3.09863 16.8822 3.20247 16.5098 3.41016C16.1374 3.61068 15.8258 3.91146 15.5752 4.3125C15.3245 4.71354 15.1348 5.21126 15.0059 5.80566C14.8841 6.3929 14.8232 7.07324 14.8232 7.84668V8.50195C14.8232 9.26823 14.8841 9.94857 15.0059 10.543C15.1348 11.1302 15.3245 11.6279 15.5752 12.0361C15.833 12.4443 16.1481 12.7523 16.5205 12.96C16.9001 13.1676 17.3405 13.2715 17.8418 13.2715C18.3216 13.2715 18.7477 13.1676 19.1201 12.96C19.4925 12.7523 19.804 12.4443 20.0547 12.0361C20.3125 11.6279 20.5059 11.1302 20.6348 10.543C20.7708 9.94857 20.8389 9.26823 20.8389 8.50195ZM39.4121 7.64258V14.0664C39.1471 14.36 38.7389 14.6751 38.1875 15.0117C37.6432 15.3411 36.9557 15.624 36.125 15.8604C35.2943 16.0967 34.3167 16.2148 33.1924 16.2148C32.154 16.2148 31.2122 16.0501 30.3672 15.7207C29.5221 15.3841 28.7952 14.8936 28.1865 14.249C27.585 13.5973 27.1195 12.8024 26.79 11.8643C26.4678 10.9189 26.3066 9.83757 26.3066 8.62012V7.75C26.3066 6.53255 26.4714 5.45117 26.8008 4.50586C27.1302 3.56055 27.5921 2.76562 28.1865 2.12109C28.7881 1.4694 29.4935 0.97526 30.3027 0.638672C31.1191 0.302083 32.0143 0.133789 32.9883 0.133789C34.4277 0.133789 35.5986 0.362956 36.501 0.821289C37.4033 1.27246 38.0872 1.89909 38.5527 2.70117C39.0182 3.49609 39.3011 4.41634 39.4014 5.46191H35.7812C35.7096 4.94629 35.5736 4.50944 35.373 4.15137C35.1797 3.78613 34.9004 3.51042 34.5352 3.32422C34.1699 3.13086 33.6973 3.03418 33.1172 3.03418C32.666 3.03418 32.2542 3.13086 31.8818 3.32422C31.5166 3.51758 31.2051 3.8112 30.9473 4.20508C30.6895 4.5918 30.4889 5.07878 30.3457 5.66602C30.2096 6.25326 30.1416 6.94076 30.1416 7.72852V8.62012C30.1416 9.40072 30.2061 10.0846 30.335 10.6719C30.471 11.2591 30.6715 11.7497 30.9365 12.1436C31.2087 12.5303 31.5524 12.8239 31.9678 13.0244C32.3903 13.2178 32.888 13.3145 33.4609 13.3145C33.862 13.3145 34.2057 13.2822 34.4922 13.2178C34.7786 13.1462 35.015 13.0602 35.2012 12.96C35.3945 12.8525 35.5413 12.7523 35.6416 12.6592V10.2314H33.0205V7.64258H39.4121ZM54.8486 7.86816V8.50195C54.8486 9.69792 54.6803 10.7721 54.3438 11.7246C54.0143 12.6699 53.5452 13.4792 52.9365 14.1523C52.3278 14.8184 51.6081 15.3304 50.7773 15.6885C49.9466 16.0394 49.0299 16.2148 48.0273 16.2148C47.0176 16.2148 46.0938 16.0394 45.2559 15.6885C44.4251 15.3304 43.7018 14.8184 43.0859 14.1523C42.4772 13.4792 42.0046 12.6699 41.668 11.7246C41.3385 10.7721 41.1738 9.69792 41.1738 8.50195V7.86816C41.1738 6.6722 41.3385 5.59798 41.668 4.64551C42.0046 3.69303 42.4736 2.88379 43.0752 2.21777C43.6839 1.5446 44.4036 1.03255 45.2344 0.681641C46.0723 0.323568 46.9961 0.144531 48.0059 0.144531C49.0085 0.144531 49.9251 0.323568 50.7559 0.681641C51.5938 1.03255 52.3171 1.5446 52.9258 2.21777C53.5345 2.88379 54.0072 3.69303 54.3438 4.64551C54.6803 5.59798 54.8486 6.6722 54.8486 7.86816ZM51.0244 8.50195V7.84668C51.0244 7.07324 50.9564 6.3929 50.8203 5.80566C50.6914 5.21126 50.498 4.71354 50.2402 4.3125C49.9824 3.91146 49.6637 3.61068 49.2842 3.41016C48.9118 3.20247 48.4857 3.09863 48.0059 3.09863C47.5046 3.09863 47.0677 3.20247 46.6953 3.41016C46.3229 3.61068 46.0114 3.91146 45.7607 4.3125C45.5101 4.71354 45.3203 5.21126 45.1914 5.80566C45.0697 6.3929 45.0088 7.07324 45.0088 7.84668V8.50195C45.0088 9.26823 45.0697 9.94857 45.1914 10.543C45.3203 11.1302 45.5101 11.6279 45.7607 12.0361C46.0186 12.4443 46.3337 12.7523 46.7061 12.96C47.0856 13.1676 47.526 13.2715 48.0273 13.2715C48.5072 13.2715 48.9333 13.1676 49.3057 12.96C49.6781 12.7523 49.9896 12.4443 50.2402 12.0361C50.498 11.6279 50.6914 11.1302 50.8203 10.543C50.9564 9.94857 51.0244 9.26823 51.0244 8.50195Z" fill="#0F0FD1"/>
</svg>
