<svg width="19" height="19" viewBox="0 0 19 19" fill="none" xmlns="http://www.w3.org/2000/svg">
<g clip-path="url(#clip0_1_131)">
<path d="M9.49999 7.47355C10.3419 7.47355 11.0245 6.79102 11.0245 5.94909C11.0245 5.10715 10.3419 4.42462 9.49999 4.42462C8.65805 4.42462 7.97552 5.10715 7.97552 5.94909C7.97552 6.79102 8.65805 7.47355 9.49999 7.47355Z" fill="#7C8A9E"/>
<path d="M18.9814 2.31309V0H17.8659V1.85129L16.6761 3.04112V5.39139H15.4119V4.20157H14.2068C14.1633 4.08481 14.1157 3.96992 14.0637 3.85652L14.9159 3.00431L12.4448 0.53319L11.5926 1.3854C11.4792 1.33335 11.3643 1.28575 11.2475 1.24225V0.037182H7.75241V1.24225C7.63566 1.28575 7.52077 1.33335 7.40736 1.3854L6.55515 0.53319L4.08403 3.00431L4.93625 3.85652C4.88419 3.96992 4.8366 4.08481 4.7931 4.20157H3.58803V5.39139H2.32384V3.04112L1.13401 1.85129V0H0.0185547V2.31309L1.20838 3.50292V13.1252H0.0185547V19H4.70349V16.6204H6.56259V19H12.4373V16.6204H14.2964V19H18.9814V13.1252H17.7915V3.50292L18.9814 2.31309ZM9.49996 3.3092C10.9556 3.3092 12.1399 4.49344 12.1399 5.94912C12.1399 7.40479 10.9556 8.58904 9.49996 8.58904C8.04429 8.58904 6.86004 7.40479 6.86004 5.94912C6.86004 4.49344 8.04429 3.3092 9.49996 3.3092ZM6.56259 15.5049H4.70349V13.1252H2.32384V6.50685H3.58803V7.69667H4.7931C4.8366 7.81342 4.88419 7.92832 4.93625 8.04172L4.08403 8.89393L6.55515 11.365L7.40736 10.5128C7.52077 10.5649 7.63566 10.6125 7.75241 10.656V11.8611H8.94223V13.1252H6.56259V15.5049ZM10.0577 16.6204H8.94223V15.5049H10.0577V16.6204ZM16.6761 13.1252H14.2964V15.5049H12.4373V13.1252H10.0577V11.8611H11.2475V10.656C11.3643 10.6125 11.4792 10.5649 11.5926 10.5128L12.4448 11.365L14.9159 8.89393L14.0637 8.04172C14.1157 7.92832 14.1633 7.81342 14.2068 7.69667H15.4119V6.50685H16.6761V13.1252Z" fill="#7C8A9E"/>
</g>
<defs>
<clipPath id="clip0_1_131">
<rect width="19" height="19" fill="white"/>
</clipPath>
</defs>
</svg>
