<svg width="19" height="18" viewBox="0 0 19 18" fill="none" xmlns="http://www.w3.org/2000/svg">
<path d="M17.396 1.95939C15.2529 -0.184056 11.7781 -0.184056 9.63502 1.95939L9.5005 2.09393L9.36598 1.95939C7.22288 -0.184056 3.7481 -0.184056 1.605 1.95939C0.1148 3.4501 -0.336464 5.58412 0.246081 7.46739H4.9078L7.62401 3.10473L10.5381 11.437L12.4663 7.50433H18.7417C19.3423 5.61216 18.8962 3.45981 17.396 1.95939Z" fill="#7C8A9E"/>
<path d="M10.3492 14.5205L7.31271 5.83728L5.60686 8.57712H0.73407C0.969676 8.98559 1.25596 9.37249 1.60479 9.72191L1.73931 9.85645L9.50029 17.6187L17.2613 9.85645L17.3958 9.72191C17.7344 9.38328 18.0131 9.00878 18.2444 8.61433H13.2455L10.3492 14.5205Z" fill="#7C8A9E"/>
</svg>
