<svg width="19" height="19" viewBox="0 0 19 19" fill="none" xmlns="http://www.w3.org/2000/svg">
<path d="M9.5 0L7.83937 1.14111L5.86328 0.723633L4.75929 2.41211L2.7832 2.7832L2.41211 4.76855L0.723633 5.87256L1.13184 7.83934L0 9.5L1.13184 11.1699L0.723633 13.1367L2.41211 14.2407L2.7832 16.2261L4.75929 16.5972L5.86328 18.2856L7.83937 17.8682L9.5 19L11.1606 17.8682L13.1367 18.2856L14.2407 16.5972L16.2168 16.2261L16.5879 14.2407L18.2764 13.1367L17.8682 11.1699L19 9.5L17.8682 7.83934L18.2764 5.87256L16.5879 4.76855L16.2168 2.7832L14.2407 2.41211L13.1367 0.723633L11.1606 1.14111L9.5 0ZM9.5 2.68115C13.2676 2.68115 16.3281 5.74171 16.3281 9.50926C16.3281 13.2768 13.2676 16.3374 9.5 16.3374C5.73245 16.3374 2.67188 13.2768 2.67188 9.50926C2.67188 5.74171 5.73245 2.68115 9.5 2.68115ZM9.5 3.2749C6.05334 3.2749 3.26562 6.06259 3.26562 9.50926C3.26562 12.9559 6.05334 15.7436 9.5 15.7436C12.9467 15.7436 15.7344 12.9559 15.7344 9.50926C15.7344 6.06259 12.9467 3.2749 9.5 3.2749ZM12.3852 6.54053L13.6841 7.75586L9.23094 12.5059L8.63719 13.1367L7.98781 12.5615L5.31593 10.1865L6.50343 8.85985L8.52586 10.6596L12.3852 6.54053Z" fill="#7C8A9E"/>
</svg>
