<svg width="18" height="20" viewBox="0 0 18 20" fill="none" xmlns="http://www.w3.org/2000/svg">
<path d="M17.4317 8.35402L10.6817 0.755632C10.4706 0.51801 10.2116 0.327818 9.92172 0.197578C9.63187 0.0673368 9.31774 0 9 0C8.68226 0 8.36813 0.0673368 8.07828 0.197578C7.78843 0.327818 7.52943 0.51801 7.31834 0.755632L0.568339 8.35402C0.202227 8.76614 -3.47314e-06 9.29838 0 9.84978V15.7479C0 16.6436 0.355579 17.5026 0.988515 18.1359C1.62145 18.7692 2.47989 19.125 3.375 19.125H5.625C5.92337 19.125 6.20952 19.0064 6.4205 18.7953C6.63147 18.5842 6.75 18.2979 6.75 17.9993V15.8684C6.73783 15.3204 6.91872 14.7856 7.26098 14.3576C7.60325 13.9296 8.08507 13.6357 8.62208 13.5274C8.94494 13.4726 9.27586 13.489 9.59176 13.5753C9.90766 13.6617 10.2009 13.8159 10.4511 14.0273C10.7013 14.2387 10.9024 14.5022 11.0404 14.7994C11.1784 15.0966 11.2499 15.4203 11.25 15.7479V17.9993C11.25 18.2979 11.3685 18.5842 11.5795 18.7953C11.7905 19.0064 12.0766 19.125 12.375 19.125H14.625C15.5201 19.125 16.3786 18.7692 17.0115 18.1359C17.6444 17.5026 18 16.6436 18 15.7479V9.84978C18 9.29838 17.7978 8.76614 17.4317 8.35402Z" fill="#0F0FD1"/>
</svg>
