<svg width="19" height="19" viewBox="0 0 19 19" fill="none" xmlns="http://www.w3.org/2000/svg">
<path d="M18.7876 8.00778C18.7285 7.97823 17.8718 7.74184 17.2219 7.56454C17.0151 6.79627 16.7197 6.05754 16.3062 5.37792L17.1038 3.95956C17.1628 3.84137 17.1628 3.69362 17.0447 3.60498L15.3904 1.95023C15.3018 1.86159 15.1541 1.83204 15.036 1.89114L13.5885 2.68896C12.9091 2.27527 12.1706 1.97978 11.4025 1.80249L10.9594 0.206843C10.9299 0.088647 10.8117 0 10.664 0H8.33033C8.18263 0 8.09401 0.088647 8.03493 0.206843L7.59183 1.80249C6.82378 1.97978 6.11482 2.30482 5.40585 2.71851L3.95838 1.92068C3.84022 1.86159 3.69252 1.86159 3.6039 1.97978L1.94965 3.63453C1.86103 3.72317 1.83149 3.87092 1.89057 3.98911L2.68816 5.40746C2.27459 6.08709 1.97919 6.82582 1.77241 7.59409L0.206781 8.03732C0.0886205 8.06687 0 8.18507 0 8.33282V10.6672C0 10.8149 0.0886205 10.9036 0.206781 10.9627L1.77241 11.4059C1.97919 12.1742 2.27459 12.9129 2.68816 13.5925L1.89057 15.0109C1.83149 15.1291 1.83149 15.2768 1.94965 15.3655L3.6039 17.0202C3.69252 17.1089 3.84022 17.1384 3.95838 17.0793L5.40585 16.2815C6.08528 16.6952 6.82378 16.9907 7.59183 17.1975L8.03493 18.7932C8.06447 18.9114 8.18263 19 8.33033 19H10.664C10.7822 19 10.9003 18.9114 10.9594 18.7932L11.4025 17.1975C12.1706 17.0202 12.9091 16.6952 13.5885 16.2815L15.036 17.0793C15.1541 17.1384 15.3018 17.1089 15.3904 17.0202L17.0447 15.3655C17.1333 15.2768 17.1628 15.1291 17.1038 15.0109L16.3062 13.5925C16.7197 12.9129 17.0151 12.1742 17.2219 11.4059L18.7876 10.9627C18.9057 10.9331 18.9943 10.8149 18.9943 10.6672V8.36236C19.0239 8.15552 18.9353 8.03732 18.7876 8.00778ZM9.57102 14.1835C6.97148 14.1835 4.84459 12.056 4.84459 9.45568C4.84459 6.85537 6.97148 4.72784 9.57102 4.72784C12.1706 4.72784 14.2975 6.85537 14.2975 9.45568C14.2975 12.056 12.1706 14.1835 9.57102 14.1835Z" fill="#7C8A9E"/>
<path d="M7.91711 8.36232C7.91711 7.4463 8.65584 6.70758 9.57186 6.70758C10.4879 6.70758 11.2266 7.4463 11.2266 8.36232C11.2266 9.27834 10.4879 10.0171 9.57186 10.0171C8.65584 10.0171 7.91711 9.27834 7.91711 8.36232Z" fill="#7C8A9E"/>
<path d="M12.909 12.0855C12.8499 12.1446 12.7613 12.2037 12.6727 12.2037H6.43968C6.35106 12.2037 6.26244 12.1741 6.20336 12.0855C6.14428 12.0264 6.11474 11.9377 6.14428 11.8491C6.35106 11.0217 6.8237 10.283 7.50313 9.8102C7.62129 9.72155 7.79853 9.7511 7.88715 9.83975C8.30071 10.3125 8.92106 10.5785 9.5414 10.5785C10.1617 10.5785 10.7821 10.3125 11.1957 9.83975C11.2843 9.72155 11.4615 9.72155 11.5797 9.8102C12.2591 10.3125 12.7317 11.0217 12.9385 11.8491C12.9976 11.9377 12.9681 12.0264 12.909 12.0855Z" fill="#7C8A9E"/>
</svg>
