<svg width="19" height="19" viewBox="0 0 19 19" fill="none" xmlns="http://www.w3.org/2000/svg">
<g clip-path="url(#clip0_1_127)">
<path d="M13.5428 8.94358H14.417C14.1601 6.65864 12.3412 4.83974 10.0563 4.58289V5.45704H8.94358V4.58289C6.65864 4.83974 4.83974 6.65864 4.58289 8.94358H5.45704V10.0563H4.58289C4.83974 12.3412 6.65864 14.1601 8.94358 14.417V13.5428H10.0563V14.417C12.3412 14.1601 14.1601 12.3412 14.417 10.0563H13.5428V8.94358ZM10.6825 11.4693L8.94358 9.73039V6.56984H10.0563V9.2695L11.4693 10.6825L10.6825 11.4693Z" fill="#7C8A9E"/>
<path d="M19 11.7016V7.29844H17.6042C17.4174 6.60799 17.1437 5.94763 16.787 5.32654L17.7743 4.33926L14.6608 1.22574L13.6735 2.21306C13.0524 1.85628 12.392 1.58263 11.7016 1.3958V0H7.2984V1.39577C6.60799 1.58259 5.94763 1.85628 5.3265 2.21302L4.33922 1.2257L1.2257 4.33926L2.21302 5.32654C1.85628 5.94763 1.58263 6.60799 1.3958 7.29844H0V11.7016H1.3958C1.58263 12.3921 1.85625 13.0523 2.21302 13.6735L1.2257 14.6608L4.33922 17.7743L5.3265 16.787C5.94763 17.1438 6.60799 17.4174 7.2984 17.6043V19H11.7016V17.6043C12.392 17.4174 13.0523 17.1438 13.6735 16.787L14.6607 17.7743L17.7743 14.6608L16.7869 13.6735C17.1437 13.0524 17.4173 12.3922 17.6042 11.7016H19ZM9.5 15.5612C6.15782 15.5612 3.43877 12.8422 3.43877 9.5C3.43877 6.15782 6.15782 3.43877 9.5 3.43877C12.8422 3.43877 15.5612 6.15782 15.5612 9.5C15.5612 12.8422 12.8422 15.5612 9.5 15.5612Z" fill="#7C8A9E"/>
</g>
<defs>
<clipPath id="clip0_1_127">
<rect width="19" height="19" fill="white"/>
</clipPath>
</defs>
</svg>
