<svg width="19" height="19" viewBox="0 0 19 19" fill="none" xmlns="http://www.w3.org/2000/svg">
<g clip-path="url(#clip0_1_180)">
<path d="M5.42357 2.81168L5.52099 4.46643C7.59302 2.82094 10.4604 2.60974 12.7511 3.93403C12.8422 3.98662 12.9036 4.07875 12.9173 4.18311C12.9311 4.28747 12.8953 4.39233 12.8209 4.46676L12.3467 4.94094L15.8802 4.73337L16.0872 1.20142L15.5161 1.77153C15.3982 1.88879 15.2126 1.90318 15.0782 1.80543C11.4918 -0.803627 6.57272 -0.562816 3.25842 2.38398L5.10536 2.49231C5.2772 2.50256 5.41398 2.64 5.42357 2.81168Z" fill="#7C8A9E"/>
<path d="M17.225 15.0471C19.8345 11.4611 19.5937 6.54148 16.6464 3.22736L16.5381 5.07446C16.5278 5.2458 16.3911 5.38258 16.2196 5.3925L14.565 5.49009C16.2103 7.56212 16.4213 10.4294 15.0974 12.7202C15.0448 12.8113 14.9526 12.8727 14.8483 12.8864C14.7439 12.9 14.6391 12.8644 14.5646 12.7898L14.0905 12.3157L14.298 15.8493L17.8316 16.0572L17.2605 15.4862C17.1421 15.3686 17.1271 15.1822 17.225 15.0471Z" fill="#7C8A9E"/>
<path d="M12.1713 8.89769C12.1036 8.60081 11.9859 8.31749 11.8233 8.05998C11.7391 7.92617 11.7586 7.75185 11.8704 7.64004L12.1658 7.34465L11.6868 6.86568L11.3914 7.16107C11.2796 7.27304 11.105 7.29255 10.9712 7.20804C10.7137 7.04546 10.4304 6.92786 10.1335 6.86022C9.97916 6.82516 9.86984 6.68788 9.87 6.5296V6.11298H9.19255V6.5296C9.19272 6.68788 9.08323 6.82516 8.92892 6.86022C8.63204 6.92786 8.34872 7.04546 8.09137 7.20804C7.9574 7.29255 7.78292 7.27304 7.67095 7.16107L7.37555 6.86568L6.89658 7.34465L7.19197 7.64004C7.30394 7.75185 7.32362 7.9265 7.23911 8.06031C7.07636 8.31782 6.95877 8.60114 6.89129 8.89802C6.85606 9.05233 6.71878 9.16165 6.56067 9.16149H6.14404V9.83894H6.56067C6.71878 9.83877 6.85606 9.94826 6.89129 10.1026C6.95877 10.3995 7.07636 10.6828 7.23911 10.9401C7.32362 11.0741 7.30394 11.2486 7.19197 11.3605L6.89658 11.6559L7.37555 12.1349L7.67095 11.8395C7.78292 11.7276 7.9574 11.7079 8.09137 11.7924C8.34872 11.9551 8.63204 12.0727 8.92892 12.1402C9.08323 12.1754 9.19272 12.3127 9.19255 12.4708V12.8874H9.87V12.4708C9.86984 12.3127 9.97916 12.1754 10.1335 12.1402C10.4304 12.0727 10.7137 11.9551 10.9712 11.7924C11.105 11.7079 11.2796 11.7276 11.3914 11.8395L11.6868 12.1349L12.1658 11.6559L11.8704 11.3605C11.7586 11.2487 11.7391 11.0744 11.8233 10.9404C11.9859 10.6831 12.1036 10.3998 12.1713 10.1029C12.2062 9.94859 12.3433 9.8391 12.5016 9.83894H12.9185V9.16149H12.5016C12.3433 9.16149 12.2062 9.052 12.1713 8.89769ZM9.53128 11.1938C8.59582 11.1938 7.83766 10.4357 7.83766 9.50021C7.83766 8.56492 8.59582 7.80659 9.53128 7.80659C10.4666 7.80659 11.2249 8.56492 11.2249 9.50021C11.2237 10.4352 10.4661 11.1928 9.53128 11.1938Z" fill="#7C8A9E"/>
<path d="M10.5474 9.50011C10.5474 10.0615 10.0924 10.5163 9.53125 10.5163C8.96991 10.5163 8.51508 10.0615 8.51508 9.50011C8.51508 8.93894 8.96991 8.48395 9.53125 8.48395C10.0924 8.48395 10.5474 8.93894 10.5474 9.50011Z" fill="#7C8A9E"/>
<path d="M13.562 11.1362C13.6901 11.0781 13.8406 11.1051 13.9403 11.204L14.7195 11.9846C15.7493 9.83352 15.3466 7.27011 13.7066 5.53846L11.4961 5.66845C11.4895 5.66879 11.4829 5.66879 11.4761 5.66845C11.3392 5.66845 11.2156 5.58592 11.1634 5.4594C11.1109 5.33287 11.1399 5.18716 11.2366 5.09024L12.0174 4.31125C9.86619 3.28185 7.30311 3.68458 5.57112 5.32411L5.70128 7.53457C5.70955 7.67483 5.63016 7.80565 5.50199 7.86337C5.37364 7.92093 5.22313 7.89331 5.12373 7.79407L4.34474 7.01491C3.31468 9.166 3.71741 11.7296 5.35743 13.4612L7.5679 13.3311C7.70749 13.3236 7.83732 13.4027 7.89488 13.5302C7.95227 13.6577 7.92548 13.8072 7.8274 13.907L7.0484 14.686C9.19966 15.7154 11.7627 15.3126 13.4946 13.6733L13.3611 11.4648C13.3533 11.324 13.4332 11.1932 13.562 11.1362ZM13.2572 10.5163H12.7605C12.7008 10.7055 12.6246 10.8891 12.5326 11.0647L12.8846 11.4163C13.0167 11.5486 13.0167 11.763 12.8846 11.8953L11.9263 12.8534C11.794 12.9857 11.5796 12.9857 11.4473 12.8534L11.0957 12.5023C10.9201 12.5941 10.7365 12.67 10.5474 12.7295V13.226C10.5474 13.4131 10.3958 13.5648 10.2087 13.5648H8.85382C8.66676 13.5648 8.5151 13.4131 8.5151 13.226V12.7295C8.32589 12.67 8.14231 12.5938 7.96666 12.502L7.61504 12.8534C7.48272 12.9857 7.26837 12.9857 7.13606 12.8534L6.17778 11.8953C6.04563 11.763 6.04563 11.5486 6.17778 11.4163L6.52907 11.0647C6.43728 10.8889 6.36136 10.7055 6.30182 10.5163H5.80532C5.61826 10.5163 5.46659 10.3646 5.46659 10.1775V8.82265C5.46659 8.63559 5.61826 8.48392 5.80532 8.48392H6.30182C6.36136 8.29488 6.43761 8.1113 6.5294 7.93565L6.17778 7.58403C6.04563 7.45171 6.04563 7.23736 6.17778 7.10505L7.13606 6.14677C7.26837 6.01462 7.48272 6.01462 7.61504 6.14677L7.96666 6.49806C8.14247 6.40627 8.32589 6.33019 8.5151 6.27081V5.77414C8.5151 5.58708 8.66676 5.43542 8.85382 5.43542H10.2087C10.3958 5.43542 10.5474 5.58708 10.5474 5.77414V6.27081C10.7365 6.33035 10.9201 6.40643 11.0957 6.49839L11.4473 6.14677C11.5796 6.01462 11.794 6.01462 11.9263 6.14677L12.8846 7.10505C13.0167 7.23736 13.0167 7.45171 12.8846 7.58403L12.533 7.93565C12.6249 8.1113 12.701 8.29488 12.7605 8.48392H13.2572C13.4443 8.48392 13.5959 8.63559 13.5959 8.82265V10.1775C13.5959 10.3646 13.4443 10.5163 13.2572 10.5163Z" fill="#7C8A9E"/>
<path d="M3.96499 6.28022C4.01775 6.18909 4.10971 6.12772 4.21424 6.114C4.3186 6.10027 4.42329 6.13599 4.49772 6.21042L4.97207 6.6846L4.76433 3.15116L1.23255 2.94409L1.80365 3.51519C1.92091 3.63312 1.93513 3.81869 1.83739 3.95315C-0.772169 7.53918 -0.531523 12.4588 2.4156 15.7729L2.52443 13.9258C2.53452 13.7545 2.6713 13.6178 2.84281 13.6077L4.49739 13.5103C2.85223 11.4383 2.64103 8.5709 3.96499 6.28022ZM1.55258 11.126L0.88903 11.2615C0.549314 9.61138 0.694694 7.89808 1.30731 6.32868L1.93844 6.57461C1.3733 8.02262 1.23916 9.60344 1.55258 11.126ZM2.22523 5.92462L1.61791 5.62444C1.73551 5.38726 1.8665 5.15026 2.00675 4.9202L2.5843 5.27381C2.45463 5.48518 2.33373 5.70399 2.22523 5.92429V5.92462Z" fill="#7C8A9E"/>
<path d="M13.6389 16.1886L13.5414 14.534C11.4695 16.1797 8.60192 16.3907 6.31124 15.0664C6.22027 15.0137 6.15891 14.9217 6.14535 14.8174C6.13162 14.7132 6.16718 14.6085 6.24144 14.534L6.71579 14.0597L3.18186 14.2674L2.97528 17.7989L3.54638 17.2278C3.66414 17.1105 3.84971 17.0963 3.98434 17.194C7.5702 19.8039 12.4901 19.5631 15.8041 16.6155L13.957 16.507C13.7856 16.4969 13.6489 16.36 13.6389 16.1886Z" fill="#7C8A9E"/>
</g>
<defs>
<clipPath id="clip0_1_180">
<rect width="19" height="19" fill="white"/>
</clipPath>
</defs>
</svg>
