<svg width="19" height="26" viewBox="0 0 19 26" fill="none" xmlns="http://www.w3.org/2000/svg">
<path d="M12.6398 16.7244C12.6398 18.4688 11.2175 19.8911 9.44632 19.8911C7.70197 19.8911 6.27966 18.4688 6.27966 16.7244C6.27966 16.4561 6.30649 16.1609 6.387 15.9194H0.670898V17.5295C0.670898 17.8516 0.912424 18.1468 1.26129 18.1736L2.95197 18.3614C3.16666 18.3883 3.32768 18.5225 3.38135 18.7103C3.4887 19.0323 3.62288 19.3544 3.75706 19.6496C3.8644 19.8374 3.83757 20.0521 3.70339 20.1863L2.62994 21.5281C2.41525 21.7696 2.44209 22.1453 2.68361 22.3869L3.81073 23.4872C4.05226 23.7287 4.40113 23.7555 4.66949 23.5408L6.0113 22.4674C6.17231 22.3332 6.387 22.3332 6.54802 22.4137C6.87005 22.5747 7.16525 22.6821 7.48728 22.7894C7.67514 22.8431 7.83615 23.0041 7.83615 23.2188L8.02401 24.9095C8.05084 25.2315 8.34604 25.4999 8.66807 25.4999H10.2514C10.5734 25.4999 10.8418 25.2583 10.8955 24.9095L11.0565 23.2188C11.0833 23.0041 11.2175 22.8431 11.4054 22.7894C11.7274 22.6821 12.0494 22.5479 12.3446 22.4137C12.5325 22.3064 12.7472 22.3332 12.9082 22.4674L14.2232 23.5408C14.4915 23.7555 14.8404 23.7287 15.0819 23.4872L16.209 22.36C16.4506 22.1185 16.4506 21.7696 16.2627 21.5013L15.1893 20.1595C15.0551 19.9984 15.0551 19.7838 15.1356 19.6227C15.2966 19.3007 15.4308 19.0055 15.5381 18.6835C15.5918 18.4956 15.7528 18.3346 15.9675 18.3346L17.685 18.1468C18.0071 18.1199 18.2486 17.8247 18.2486 17.5027C18.2486 17.5027 18.2486 15.9194 18.2486 15.8925H12.5325C12.5862 16.1609 12.6398 16.4292 12.6398 16.7244Z" fill="#7C8A9E"/>
<path d="M18.2754 12.2159H14.5184V6.44615C14.5184 6.17779 14.3037 5.9631 14.0353 5.9631H12.4251C12.1568 5.9631 11.9421 6.17779 11.9421 6.44615V12.2159H10.7613V8.37836C10.7613 8.11 10.5466 7.89531 10.2782 7.89531H8.66808C8.39972 7.89531 8.18503 8.11 8.18503 8.37836V12.2159H7.00424V10.3106C7.00424 10.0422 6.78955 9.82751 6.52119 9.82751H4.91102C4.64266 9.82751 4.42797 10.0422 4.42797 10.3106V12.2159H0.670904C0.295198 12.2159 0 12.5111 0 12.8868V13.7188C0 14.0945 0.295198 14.3897 0.670904 14.3897H18.3291C18.7048 14.3897 19 14.0945 19 13.7188V12.8868C18.9463 12.5111 18.6511 12.2159 18.2754 12.2159Z" fill="#7C8A9E"/>
<path d="M5.25995 8.61989L11.4859 3.68204L12.1837 4.46029C12.4789 4.78232 13.0156 4.64814 13.1229 4.21876L13.9817 0.676388C14.0622 0.300682 13.767 -0.0481882 13.3913 0.0054841L9.76843 0.488535C9.33905 0.542207 9.1512 1.05209 9.44639 1.37413L10.1441 2.15238L4.53538 7.78797C4.34752 7.97582 4.32069 8.29786 4.4817 8.53938C4.66956 8.75407 5.01843 8.80774 5.25995 8.61989Z" fill="#7C8A9E"/>
</svg>
