<svg width="19" height="19" viewBox="0 0 19 19" fill="none" xmlns="http://www.w3.org/2000/svg">
<g clip-path="url(#clip0_1_166)">
<path d="M13.2934 2.81109H12.4965C12.4202 2.64985 12.3313 2.4957 12.2304 2.34942L12.6286 1.65966C12.7596 1.43285 12.6819 1.14284 12.4551 1.01192L10.8125 0.0635897C10.7036 0.000689283 10.5741 -0.0163068 10.4527 0.016201C10.3312 0.048783 10.2276 0.128234 10.1648 0.23715L9.76719 0.925789C9.58776 0.910537 9.41224 0.910537 9.23281 0.925789L8.83522 0.23715C8.77232 0.128234 8.66875 0.048783 8.54733 0.016201C8.42591 -0.0163068 8.29643 0.000689283 8.18752 0.0635897L6.54494 1.01196C6.31813 1.14288 6.24042 1.43289 6.37138 1.6597L6.7696 2.34949C6.66867 2.49574 6.57983 2.64993 6.50353 2.81113H5.70661C5.44472 2.81113 5.23242 3.02343 5.23242 3.28531V5.18201C5.23242 5.44389 5.44472 5.65619 5.70661 5.65619H6.50353C6.57983 5.81736 6.66867 5.97155 6.7696 6.1178L6.37138 6.80759C6.24042 7.0344 6.31813 7.32441 6.54494 7.45533L8.18752 8.4037C8.29639 8.4666 8.42583 8.48356 8.54733 8.45109C8.66879 8.41851 8.77236 8.33905 8.83522 8.23014L9.23281 7.54143C9.41224 7.55675 9.58776 7.55675 9.76719 7.54143L10.1648 8.23006C10.2277 8.33898 10.3312 8.41843 10.4527 8.45101C10.493 8.46181 10.5343 8.46716 10.5754 8.46716C10.658 8.46716 10.7398 8.44559 10.8125 8.40362L12.4551 7.45526C12.6819 7.32434 12.7596 7.03433 12.6287 6.80751L12.2304 6.11776C12.3314 5.97151 12.4202 5.81736 12.4965 5.65612H13.2934C13.5553 5.65612 13.7676 5.44382 13.7676 5.18194V4.70775V3.75939V3.28528C13.7676 3.0234 13.5553 2.81109 13.2934 2.81109ZM9.5 5.62521C8.73262 5.62521 8.1084 5.00099 8.1084 4.23361C8.1084 3.46622 8.73262 2.84201 9.5 2.84201C10.2674 2.84201 10.8916 3.46622 10.8916 4.23361C10.8916 5.00099 10.2674 5.62521 9.5 5.62521Z" fill="#7C8A9E"/>
<path d="M2.96875 6.0082V4.79016H4.11914V3.67688H2.41211C2.1047 3.67688 1.85547 3.92611 1.85547 4.23352V6.0082C1.42392 6.10966 1.02778 6.3286 0.706488 6.64993C0.250896 7.10549 0 7.71123 0 8.35552C0 8.99981 0.250896 9.60558 0.706488 10.0611C0.923838 10.2785 1.2763 10.2785 1.49369 10.0611C1.71108 9.84379 1.71108 9.49132 1.49369 9.27394C0.987295 8.76754 0.987295 7.94349 1.49369 7.4371C1.73902 7.19181 2.06517 7.05669 2.41211 7.05669C2.75904 7.05669 3.0852 7.19181 3.33053 7.4371C3.83692 7.94349 3.83692 8.76754 3.33053 9.27394C3.11314 9.49129 3.11314 9.84375 3.33053 10.0611C3.43922 10.1698 3.58169 10.2242 3.72411 10.2242C3.86654 10.2242 4.00904 10.1698 4.11769 10.0611C4.57329 9.60558 4.82418 8.99981 4.82418 8.35552C4.82418 7.71123 4.57329 7.10545 4.11769 6.6499C3.79644 6.3286 3.4003 6.10966 2.96875 6.0082Z" fill="#7C8A9E"/>
<path d="M18.2935 6.64987C17.9722 6.32854 17.5761 6.10964 17.1445 6.00814V4.23346C17.1445 3.92605 16.8953 3.67682 16.5879 3.67682H14.8809V4.7901H16.0312V6.00814C15.5997 6.1096 15.2036 6.32854 14.8823 6.64987C14.4267 7.10547 14.1758 7.7112 14.1758 8.35549C14.1758 8.99979 14.4267 9.60556 14.8823 10.0611C15.0996 10.2785 15.4521 10.2785 15.6695 10.0611C15.8869 9.84377 15.8869 9.4913 15.6695 9.27391C15.1631 8.76752 15.1631 7.94347 15.6695 7.43707C15.9148 7.19178 16.241 7.05667 16.5879 7.05667C16.9348 7.05667 17.261 7.19178 17.5063 7.43707C18.0127 7.94347 18.0127 8.76752 17.5063 9.27391C17.2889 9.49126 17.2889 9.84373 17.5063 10.0611C17.615 10.1698 17.7575 10.2242 17.8999 10.2242C18.0423 10.2242 18.1848 10.1698 18.2935 10.0611C18.7491 9.60556 19 8.99979 19 8.35549C19 7.7112 18.7491 7.10547 18.2935 6.64987Z" fill="#7C8A9E"/>
<path d="M1.52148 19C2.34128 19 3.00586 18.3354 3.00586 17.5156C3.00586 16.6958 2.34128 16.0312 1.52148 16.0312C0.701687 16.0312 0.0371094 16.6958 0.0371094 17.5156C0.0371094 18.3354 0.701687 19 1.52148 19Z" fill="#7C8A9E"/>
<path d="M9.5 19C10.3198 19 10.9844 18.3354 10.9844 17.5156C10.9844 16.6958 10.3198 16.0312 9.5 16.0312C8.6802 16.0312 8.01562 16.6958 8.01562 17.5156C8.01562 18.3354 8.6802 19 9.5 19Z" fill="#7C8A9E"/>
<path d="M11.6299 16.0312C11.9243 16.4524 12.0977 16.964 12.0977 17.5156C12.0977 18.0673 11.9243 18.5789 11.6299 19H15.3486C15.0542 18.5789 14.8809 18.0673 14.8809 17.5156C14.8809 16.964 15.0542 16.4524 15.3486 16.0312H11.6299Z" fill="#7C8A9E"/>
<path d="M3.65143 16.0312C3.94578 16.4524 4.11915 16.964 4.11915 17.5156C4.11915 18.0673 3.94578 18.5789 3.65143 19H7.37008C7.07573 18.5789 6.90235 18.0673 6.90235 17.5156C6.90235 16.964 7.07573 16.4524 7.37008 16.0312H3.65143Z" fill="#7C8A9E"/>
<path d="M17.4785 19C18.2983 19 18.9629 18.3354 18.9629 17.5156C18.9629 16.6958 18.2983 16.0312 17.4785 16.0312C16.6587 16.0312 15.9941 16.6958 15.9941 17.5156C15.9941 18.3354 16.6587 19 17.4785 19Z" fill="#7C8A9E"/>
<path d="M10.8916 11.5781H8.1084C7.80098 11.5781 7.55176 11.8274 7.55176 12.1348V14.918H11.4482V12.1348C11.4482 11.8274 11.199 11.5781 10.8916 11.5781Z" fill="#7C8A9E"/>
<path d="M5.3252 11.5781H2.54199C2.23458 11.5781 1.98535 11.8274 1.98535 12.1348V14.918H5.88184V12.1348C5.88184 11.8274 5.63261 11.5781 5.3252 11.5781Z" fill="#7C8A9E"/>
<path d="M13.6748 11.5781C13.3674 11.5781 13.1182 11.8274 13.1182 12.1348V14.918H17.0146V12.1348C17.0146 11.8274 16.7654 11.5781 16.458 11.5781H13.6748Z" fill="#7C8A9E"/>
</g>
<defs>
<clipPath id="clip0_1_166">
<rect width="19" height="19" fill="white"/>
</clipPath>
</defs>
</svg>
