<svg width="20" height="20" viewBox="0 0 20 20" fill="none" xmlns="http://www.w3.org/2000/svg">
<path d="M16.925 11.8083L16.5625 11.5167C16.4651 11.4387 16.3864 11.3397 16.3323 11.2272C16.2782 11.1147 16.2501 10.9915 16.25 10.8667V7.50001C16.2495 6.05321 15.7471 4.65138 14.8285 3.53365C13.9098 2.41592 12.6318 1.65153 11.2125 1.37085C11.1433 1.10243 10.9869 0.864629 10.7677 0.694845C10.5486 0.52506 10.2793 0.432922 10.0021 0.432922C9.72491 0.432922 9.45558 0.52506 9.23647 0.694845C9.01736 0.864629 8.86089 1.10243 8.79169 1.37085C7.3716 1.65068 6.09266 2.41471 5.17318 3.53252C4.25371 4.65033 3.7507 6.05262 3.75002 7.50001V10.8667C3.74994 10.9915 3.72182 11.1147 3.66773 11.2272C3.61364 11.3397 3.53497 11.4387 3.43752 11.5167L3.07502 11.8083C2.63722 12.1583 2.28345 12.602 2.03973 13.1068C1.79601 13.6115 1.66853 14.1645 1.66669 14.725V15.4167C1.66669 15.8587 1.84228 16.2826 2.15484 16.5952C2.4674 16.9077 2.89133 17.0833 3.33335 17.0833H6.77502C6.96286 17.7949 7.38086 18.4242 7.96385 18.8733C8.54685 19.3223 9.26205 19.5658 9.99794 19.5658C10.7338 19.5658 11.449 19.3223 12.032 18.8733C12.615 18.4242 13.033 17.7949 13.2209 17.0833H16.6667C17.1087 17.0833 17.5326 16.9077 17.8452 16.5952C18.1578 16.2826 18.3334 15.8587 18.3334 15.4167V14.7333C18.3328 14.1714 18.2059 13.6168 17.9621 13.1105C17.7183 12.6043 17.3639 12.1592 16.925 11.8083ZM10 17.9167C9.70917 17.9149 9.42383 17.8371 9.17238 17.6909C8.92093 17.5447 8.71211 17.3352 8.56669 17.0833H11.4375C11.2917 17.3358 11.0823 17.5457 10.83 17.6919C10.5778 17.8382 10.2916 17.9156 10 17.9167ZM16.6667 15.4167H3.33335V14.7333C3.3338 14.4211 3.40443 14.1129 3.54002 13.8317C3.67561 13.5504 3.87269 13.3032 4.11669 13.1083L4.47919 12.8167C4.77153 12.5826 5.00755 12.2859 5.16982 11.9484C5.33209 11.6108 5.41645 11.2412 5.41669 10.8667V7.50001C5.41669 6.28444 5.89957 5.11865 6.75912 4.25911C7.61866 3.39956 8.78445 2.91668 10 2.91668C11.2156 2.91668 12.3814 3.39956 13.2409 4.25911C14.1005 5.11865 14.5834 6.28444 14.5834 7.50001V10.8667C14.583 11.2419 14.667 11.6124 14.8293 11.9506C14.9916 12.2889 15.228 12.5863 15.5209 12.8208L15.8834 13.1125C16.1268 13.3069 16.3236 13.5534 16.4591 13.834C16.5947 14.1145 16.6656 14.4218 16.6667 14.7333V15.4167Z" fill="#A5A5A5"/>
<circle cx="14.5" cy="3.5" r="3" fill="#FE5C83" stroke="white"/>
</svg>
