<svg width="65" height="65" viewBox="0 0 65 65" fill="none" xmlns="http://www.w3.org/2000/svg">
<path d="M26.5 3.4641C30.2128 1.32051 34.7872 1.32051 38.5 3.4641L54.6458 12.7859C58.3586 14.9295 60.6458 18.891 60.6458 23.1782V41.8218C60.6458 46.109 58.3586 50.0705 54.6458 52.2141L38.5 61.5359C34.7872 63.6795 30.2128 63.6795 26.5 61.5359L10.3542 52.2141C6.64136 50.0705 4.35417 46.109 4.35417 41.8218V23.1782C4.35417 18.891 6.64136 14.9295 10.3542 12.7859L26.5 3.4641Z" fill="#F3F3F5"/>
<path d="M37.6138 37.6435C37.6138 39.9009 35.7443 41.7415 33.4163 41.7415C31.1236 41.7415 29.2542 39.9009 29.2542 37.6435C29.2542 37.2962 29.2894 36.9142 29.3953 36.6016H21.8822V38.6854C21.8822 39.1021 22.1997 39.4841 22.6582 39.5189L24.8804 39.762C25.1626 39.7967 25.3742 39.9703 25.4447 40.2135C25.5858 40.6302 25.7622 41.047 25.9385 41.429C26.0796 41.6721 26.0444 41.9499 25.868 42.1236L24.4571 43.86C24.1749 44.1726 24.2102 44.6588 24.5276 44.9714L26.0091 46.3953C26.3265 46.7078 26.7851 46.7426 27.1378 46.4647L28.9014 45.0756C29.1131 44.9019 29.3953 44.9019 29.6069 45.0061C30.0302 45.2145 30.4182 45.3534 30.8414 45.4923C31.0883 45.5618 31.3 45.7702 31.3 46.048L31.5469 48.2359C31.5822 48.6527 31.9702 49 32.3934 49H34.4745C34.8978 49 35.2505 48.6874 35.321 48.2359L35.5327 46.048C35.568 45.7702 35.7443 45.5618 35.9912 45.4923C36.4145 45.3534 36.8378 45.1798 37.2258 45.0061C37.4727 44.8672 37.7549 44.9019 37.9665 45.0756L39.6948 46.4647C40.0476 46.7426 40.5061 46.7078 40.8236 46.3953L42.305 44.9367C42.6225 44.6241 42.6225 44.1726 42.3756 43.8253L40.9647 42.0888C40.7883 41.8805 40.7883 41.6026 40.8941 41.3943C41.1057 40.9775 41.2821 40.5955 41.4232 40.1787C41.4937 39.9356 41.7054 39.7272 41.9876 39.7272L44.245 39.4841C44.6683 39.4494 44.9857 39.0674 44.9857 38.6506C44.9857 38.6506 44.9857 36.6016 44.9857 36.5669H37.4727C37.5432 36.9142 37.6138 37.2615 37.6138 37.6435Z" fill="#0F0FD1"/>
<path d="M45.0206 31.809H40.0825V24.3421C40.0825 23.9948 39.8003 23.717 39.4475 23.717H37.3312C36.9785 23.717 36.6963 23.9948 36.6963 24.3421V31.809H35.1443V26.8427C35.1443 26.4954 34.8621 26.2175 34.5094 26.2175H32.393C32.0403 26.2175 31.7581 26.4954 31.7581 26.8427V31.809H30.2061V29.3432C30.2061 28.9959 29.924 28.718 29.5712 28.718H27.4549C27.1022 28.718 26.82 28.9959 26.82 29.3432V31.809H21.8818C21.388 31.809 21 32.191 21 32.6772V33.7538C21 34.24 21.388 34.622 21.8818 34.622H45.0912C45.585 34.622 45.973 34.24 45.973 33.7538V32.6772C45.9024 32.191 45.5144 31.809 45.0206 31.809Z" fill="#0F0FD1"/>
<path d="M27.9133 27.1552L36.0965 20.765L37.0136 21.7722C37.4016 22.1889 38.1071 22.0153 38.2482 21.4596L39.3769 16.8753C39.4827 16.3891 39.0947 15.9376 38.6009 16.0071L33.8391 16.6322C33.2747 16.7017 33.0278 17.3615 33.4158 17.7783L34.3329 18.7854L26.9609 26.0786C26.714 26.3217 26.6788 26.7385 26.8904 27.051C27.1373 27.3289 27.5958 27.3983 27.9133 27.1552Z" fill="#0F0FD1"/>
</svg>
