<svg width="65" height="65" viewBox="0 0 65 65" fill="none" xmlns="http://www.w3.org/2000/svg">
<path d="M26.5 3.4641C30.2128 1.32051 34.7872 1.32051 38.5 3.4641L54.6458 12.7859C58.3586 14.9295 60.6458 18.891 60.6458 23.1782V41.8218C60.6458 46.109 58.3586 50.0705 54.6458 52.2141L38.5 61.5359C34.7872 63.6795 30.2128 63.6795 26.5 61.5359L10.3542 52.2141C6.64136 50.0705 4.35417 46.109 4.35417 41.8218V23.1782C4.35417 18.891 6.64136 14.9295 10.3542 12.7859L26.5 3.4641Z" fill="#F3F3F5"/>
<path d="M30.5995 29.9742H35.5917V24.6253C35.5917 23.9121 34.8191 23.5556 34.2248 23.9121L29.5892 27.1809V24.6253C29.5892 23.9121 28.8165 23.5556 28.2222 23.9121L23.5271 27.1809V21.5943C23.5271 21.2972 23.2894 21 22.9328 21H19.3669C19.0698 21 18.832 21.2377 18.7726 21.5349C18.6537 24.447 18.1189 38.2351 18 41.2662C18 41.5633 18.2377 41.8605 18.5943 41.8605H28.0439C27.9251 41.5633 27.8656 41.2662 27.8656 40.969V32.708C27.9251 31.2222 29.1137 29.9742 30.5995 29.9742ZM25.1912 38.2351C25.1912 38.4729 25.0129 38.6512 24.7752 38.6512H22.6357C22.3979 38.6512 22.2196 38.4729 22.2196 38.2351V36.0956C22.2196 35.8579 22.3979 35.6796 22.6357 35.6796H24.7752C25.0129 35.6796 25.1912 35.8579 25.1912 36.0956V38.2351ZM25.1912 33.124C25.1912 33.3618 25.0129 33.5401 24.7752 33.5401H22.6357C22.3979 33.5401 22.2196 33.3618 22.2196 33.124V30.9845C22.2196 30.7468 22.3979 30.5685 22.6357 30.5685H24.7752C25.0129 30.5685 25.1912 30.7468 25.1912 30.9845V33.124Z" fill="#0F0FD1"/>
<path d="M47.1214 34.3721C47.0026 34.0749 46.7054 33.8372 46.4083 33.8372H42.9612V32.6486C42.9612 32.2326 42.6046 31.876 42.1886 31.876H30.5995C30.1834 31.876 29.8269 32.2326 29.8269 32.6486V41.0284C29.8269 41.4445 30.1834 41.801 30.5995 41.801H31.8475C31.8475 42.9897 32.7984 44 34.0465 44C35.2351 44 36.2455 43.0491 36.2455 41.801H42.1292C42.1292 42.9897 43.0801 44 44.3282 44C45.5168 44 46.5271 43.0491 46.5271 41.801H47.7752C48.1912 41.801 48.5478 41.4445 48.5478 41.0284V39.3643C48.5478 38.77 48.4289 38.1757 48.2506 37.5814L47.1214 34.3721ZM34.0465 42.8708C33.4522 42.8708 33.0362 42.3954 33.0362 41.8605C33.0362 41.3256 33.5116 40.8501 34.0465 40.8501C34.6408 40.8501 35.0568 41.3256 35.0568 41.8605C35.0568 42.3954 34.6408 42.8708 34.0465 42.8708ZM44.2687 42.8708C43.6744 42.8708 43.2584 42.3954 43.2584 41.8605C43.2584 41.3256 43.7338 40.8501 44.2687 40.8501C44.863 40.8501 45.2791 41.3256 45.2791 41.8605C45.2791 42.3954 44.863 42.8708 44.2687 42.8708ZM46.5866 37.3437H43.3178C43.1395 37.3437 43.0207 37.2248 43.0207 37.0465V35.323C43.0207 35.1447 43.1395 35.0258 43.3178 35.0258H45.9328C46.0517 35.0258 46.1705 35.0853 46.23 35.2636L46.8243 37.0465C46.8243 37.1654 46.7054 37.3437 46.5866 37.3437Z" fill="#0F0FD1"/>
</svg>
