<svg width="65" height="65" viewBox="0 0 65 65" fill="none" xmlns="http://www.w3.org/2000/svg">
<path d="M26.5 3.4641C30.2128 1.32051 34.7872 1.32051 38.5 3.4641L54.6458 12.7859C58.3586 14.9295 60.6458 18.891 60.6458 23.1782V41.8218C60.6458 46.109 58.3586 50.0705 54.6458 52.2141L38.5 61.5359C34.7872 63.6795 30.2128 63.6795 26.5 61.5359L10.3542 52.2141C6.64136 50.0705 4.35417 46.109 4.35417 41.8218V23.1782C4.35417 18.891 6.64136 14.9295 10.3542 12.7859L26.5 3.4641Z" fill="#F3F3F5"/>
<path d="M33 20L30.7276 21.5615L28.0234 20.9902L26.5127 23.3008L23.8086 23.8086L23.3008 26.5254L20.9902 28.0361L21.5488 30.7275L20 33L21.5488 35.2852L20.9902 37.9766L23.3008 39.4873L23.8086 42.2041L26.5127 42.7119L28.0234 45.0225L30.7276 44.4512L33 46L35.2724 44.4512L37.9766 45.0225L39.4873 42.7119L42.1914 42.2041L42.6992 39.4873L45.0098 37.9766L44.4512 35.2852L46 33L44.4512 30.7275L45.0098 28.0361L42.6992 26.5254L42.1914 23.8086L39.4873 23.3008L37.9766 20.9902L35.2724 21.5615L33 20ZM33 23.6689C38.1556 23.6689 42.3438 27.8571 42.3438 33.0127C42.3438 38.1683 38.1556 42.3564 33 42.3564C27.8444 42.3564 23.6562 38.1683 23.6562 33.0127C23.6562 27.8571 27.8444 23.6689 33 23.6689ZM33 24.4814C28.2835 24.4814 24.4688 28.2962 24.4688 33.0127C24.4688 37.7292 28.2835 41.5439 33 41.5439C37.7165 41.5439 41.5312 37.7292 41.5312 33.0127C41.5312 28.2962 37.7165 24.4814 33 24.4814ZM36.9482 28.9502L38.7256 30.6133L32.6318 37.1133L31.8193 37.9766L30.9307 37.1895L27.2744 33.9395L28.8994 32.124L31.667 34.5869L36.9482 28.9502Z" fill="#0F0FD1"/>
</svg>
