<svg width="65" height="65" viewBox="0 0 65 65" fill="none" xmlns="http://www.w3.org/2000/svg">
<path d="M26.5 3.4641C30.2128 1.32051 34.7872 1.32051 38.5 3.4641L54.6458 12.7859C58.3586 14.9295 60.6458 18.891 60.6458 23.1782V41.8218C60.6458 46.109 58.3586 50.0705 54.6458 52.2141L38.5 61.5359C34.7872 63.6795 30.2128 63.6795 26.5 61.5359L10.3542 52.2141C6.64136 50.0705 4.35417 46.109 4.35417 41.8218V23.1782C4.35417 18.891 6.64136 14.9295 10.3542 12.7859L26.5 3.4641Z" fill="#F3F3F5"/>
<path d="M44.6362 25.3691C41.478 22.2103 36.3572 22.2103 33.199 25.3691L33.0007 25.5673L32.8025 25.3691C29.6442 22.2103 24.5235 22.2103 21.3653 25.3691C19.1692 27.5659 18.5042 30.7108 19.3626 33.4861H26.2325L30.2354 27.0569L34.5298 39.336L37.3714 33.5406H46.6194C47.5045 30.7521 46.847 27.5802 44.6362 25.3691Z" fill="#0F0FD1"/>
<path d="M34.2515 43.8803L29.7767 31.0839L27.2628 35.1216H20.0818C20.4291 35.7235 20.851 36.2937 21.365 36.8086L21.5632 37.0069L33.0005 48.446L44.4377 37.0069L44.636 36.8086C45.1349 36.3096 45.5457 35.7577 45.8866 35.1764H38.5197L34.2515 43.8803Z" fill="#0F0FD1"/>
</svg>
