<svg width="65" height="65" viewBox="0 0 65 65" fill="none" xmlns="http://www.w3.org/2000/svg">
<path d="M26.5 3.4641C30.2128 1.32051 34.7872 1.32051 38.5 3.4641L54.6458 12.7859C58.3586 14.9295 60.6458 18.891 60.6458 23.1782V41.8218C60.6458 46.109 58.3586 50.0705 54.6458 52.2141L38.5 61.5359C34.7872 63.6795 30.2128 63.6795 26.5 61.5359L10.3542 52.2141C6.64136 50.0705 4.35417 46.109 4.35417 41.8218V23.1782C4.35417 18.891 6.64136 14.9295 10.3542 12.7859L26.5 3.4641Z" fill="#F3F3F5"/>
<path d="M46.4963 31.6106C46.4097 31.5673 45.1533 31.2207 44.2002 30.9608C43.8969 29.8344 43.4637 28.7513 42.8572 27.7548L44.0269 25.6753C44.1135 25.502 44.1135 25.2854 43.9403 25.1554L41.5141 22.7293C41.3842 22.5993 41.1675 22.556 40.9942 22.6426L38.8714 23.8124C37.8749 23.2058 36.7918 22.7726 35.6654 22.5127L35.0156 20.1732C34.9722 19.9999 34.799 19.8699 34.5823 19.8699H31.1598C30.9431 19.8699 30.8132 19.9999 30.7265 20.1732L30.0767 22.5127C28.9502 22.7726 27.9105 23.2492 26.8707 23.8557L24.7479 22.686C24.5746 22.5993 24.3579 22.5993 24.228 22.7726L21.8018 25.1987C21.6719 25.3287 21.6285 25.5453 21.7152 25.7186L22.8849 27.7982C22.2784 28.7946 21.8452 29.8777 21.5419 31.0041L19.2457 31.654C19.0724 31.6973 18.9425 31.8706 18.9425 32.0872V35.5098C18.9425 35.7264 19.0724 35.8564 19.2457 35.943L21.5419 36.5929C21.8452 37.7193 22.2784 38.8024 22.8849 39.7988L21.7152 41.8784C21.6285 42.0517 21.6285 42.2683 21.8018 42.3982L24.228 44.8244C24.3579 44.9543 24.5746 44.9977 24.7479 44.911L26.8707 43.7413C27.8672 44.3478 28.9502 44.781 30.0767 45.0843L30.7265 47.4238C30.7698 47.5971 30.9431 47.7271 31.1598 47.7271H34.5823C34.7556 47.7271 34.9289 47.5971 35.0156 47.4238L35.6654 45.0843C36.7918 44.8244 37.8749 44.3478 38.8714 43.7413L40.9942 44.911C41.1675 44.9977 41.3842 44.9543 41.5141 44.8244L43.9403 42.3982C44.0702 42.2683 44.1135 42.0517 44.0269 41.8784L42.8572 39.7988C43.4637 38.8024 43.8969 37.7193 44.2002 36.5929L46.4963 35.943C46.6696 35.8997 46.7996 35.7264 46.7996 35.5098V32.1305C46.8429 31.8273 46.713 31.654 46.4963 31.6106ZM32.9794 40.6653C29.1669 40.6653 26.0476 37.546 26.0476 33.7335C26.0476 29.921 29.1669 26.8017 32.9794 26.8017C36.7918 26.8017 39.9111 29.921 39.9111 33.7335C39.9111 37.546 36.7918 40.6653 32.9794 40.6653Z" fill="#0F0FD1"/>
<path d="M30.5529 32.1305C30.5529 30.7875 31.636 29.7044 32.979 29.7044C34.322 29.7044 35.4051 30.7875 35.4051 32.1305C35.4051 33.4735 34.322 34.5566 32.979 34.5566C31.636 34.5566 30.5529 33.4735 30.5529 32.1305Z" fill="#0F0FD1"/>
<path d="M37.8748 37.5893C37.7881 37.6759 37.6582 37.7626 37.5282 37.7626H28.3869C28.2569 37.7626 28.1269 37.7193 28.0403 37.5893C27.9536 37.5026 27.9103 37.3727 27.9536 37.2427C28.2569 36.0296 28.9501 34.9465 29.9465 34.2534C30.1198 34.1234 30.3798 34.1667 30.5097 34.2967C31.1163 34.9899 32.0261 35.3798 32.9359 35.3798C33.8457 35.3798 34.7555 34.9899 35.362 34.2967C35.492 34.1234 35.7519 34.1234 35.9252 34.2534C36.9216 34.9899 37.6148 36.0296 37.9181 37.2427C38.0047 37.3727 37.9614 37.5026 37.8748 37.5893Z" fill="#0F0FD1"/>
</svg>
