<svg width="65" height="65" viewBox="0 0 65 65" fill="none" xmlns="http://www.w3.org/2000/svg">
<path d="M26.5 3.4641C30.2128 1.32051 34.7872 1.32051 38.5 3.4641L54.6458 12.7859C58.3586 14.9295 60.6458 18.891 60.6458 23.1782V41.8218C60.6458 46.109 58.3586 50.0705 54.6458 52.2141L38.5 61.5359C34.7872 63.6795 30.2128 63.6795 26.5 61.5359L10.3542 52.2141C6.64136 50.0705 4.35417 46.109 4.35417 41.8218V23.1782C4.35417 18.891 6.64136 14.9295 10.3542 12.7859L26.5 3.4641Z" fill="#F3F3F5"/>
<path d="M40.2143 19V31.5L29.6071 25.25V31.5L19 25.25V44H46V19H40.2143ZM21.5714 35.7763H26.7143V39.0658H21.5714V35.7763ZM29.9286 35.7763H35.0714V39.0658H29.9286V35.7763ZM38.2857 35.7763H43.4286V39.0658H38.2857V35.7763Z" fill="#0F0FD1"/>
</svg>
