<svg width="65" height="65" viewBox="0 0 65 65" fill="none" xmlns="http://www.w3.org/2000/svg">
<path d="M26.5 3.4641C30.2128 1.32051 34.7872 1.32051 38.5 3.4641L54.6458 12.7859C58.3586 14.9295 60.6458 18.891 60.6458 23.1782V41.8218C60.6458 46.109 58.3586 50.0705 54.6458 52.2141L38.5 61.5359C34.7872 63.6795 30.2128 63.6795 26.5 61.5359L10.3542 52.2141C6.64136 50.0705 4.35417 46.109 4.35417 41.8218V23.1782C4.35417 18.891 6.64136 14.9295 10.3542 12.7859L26.5 3.4641Z" fill="#F3F3F5"/>
<path d="M32.4396 23.0902C31.8374 23.0902 31.2486 22.9116 30.7479 22.577C30.2471 22.2424 29.8568 21.7668 29.6263 21.2104C29.3958 20.654 29.3355 20.0417 29.453 19.451C29.5705 18.8603 29.8606 18.3178 30.2864 17.8919C30.7123 17.466 31.2549 17.176 31.8456 17.0585C32.4362 16.941 33.0485 17.0013 33.6049 17.2318C34.1614 17.4623 34.6369 17.8526 34.9715 18.3533C35.3061 18.8541 35.4847 19.4428 35.4847 20.0451C35.4847 20.8527 35.1639 21.6272 34.5928 22.1983C34.0218 22.7694 33.2472 23.0902 32.4396 23.0902ZM36.6029 32.6552V27.9078L38.1723 30.0378C38.2688 30.1691 38.3918 30.2785 38.5334 30.359C38.675 30.4395 38.832 30.4892 38.9942 30.5048C39.1563 30.5205 39.3199 30.5018 39.4743 30.4499C39.6287 30.3981 39.7705 30.3142 39.8902 30.2038L43.6658 26.7371C43.7781 26.6343 43.869 26.5103 43.9334 26.3723C43.9977 26.2343 44.0343 26.0849 44.0408 25.9328C44.0474 25.7806 44.0239 25.6287 43.9717 25.4856C43.9195 25.3426 43.8396 25.2112 43.7366 25.099C43.6336 24.9869 43.5095 24.8961 43.3714 24.832C43.2332 24.7679 43.0838 24.7316 42.9317 24.7253C42.7795 24.7189 42.6276 24.7427 42.4846 24.7951C42.3416 24.8475 42.2104 24.9276 42.0984 25.0308L39.2726 27.625L38.0372 25.9496C37.4041 25.0926 35.6055 24.0478 32.5 24.0478C29.3945 24.0478 27.5959 25.0926 26.9627 25.9496L25.7274 27.625L22.9016 25.0308C22.7896 24.9276 22.6583 24.8475 22.5154 24.7951C22.3724 24.7427 22.2205 24.7189 22.0683 24.7253C21.9162 24.7316 21.7667 24.7679 21.6286 24.832C21.4905 24.8961 21.3664 24.9869 21.2634 25.099C21.1603 25.2112 21.0804 25.3426 21.0282 25.4856C20.976 25.6287 20.9526 25.7806 20.9591 25.9328C20.9657 26.0849 21.0022 26.2343 21.0666 26.3723C21.131 26.5103 21.2219 26.6343 21.3342 26.7371L25.1097 30.2038C25.2295 30.3142 25.3712 30.3981 25.5257 30.4499C25.6801 30.5018 25.8437 30.5205 26.0058 30.5048C26.1679 30.4892 26.3249 30.4395 26.4666 30.359C26.6082 30.2785 26.7312 30.1691 26.8276 30.0378L28.2764 28.0716V32.6552H36.6029ZM19 34.4V37.2647C19 37.308 19.0085 37.351 19.0251 37.391C19.0417 37.4311 19.066 37.4674 19.0967 37.4981C19.1273 37.5287 19.1637 37.553 19.2037 37.5696C19.2438 37.5862 19.2867 37.5948 19.3301 37.5948H23.3712L24.235 45.3118H40.765L41.6288 37.5948H45.6699C45.7575 37.5948 45.8414 37.56 45.9033 37.4981C45.9652 37.4362 46 37.3522 46 37.2647V34.4C46 34.3125 45.9652 34.2286 45.9033 34.1667C45.8414 34.1048 45.7575 34.07 45.6699 34.07H19.3301C19.2867 34.07 19.2438 34.0785 19.2037 34.0951C19.1637 34.1117 19.1273 34.136 19.0967 34.1667C19.066 34.1973 19.0417 34.2337 19.0251 34.2737C19.0085 34.3138 19 34.3567 19 34.4Z" fill="#0F0FD1"/>
</svg>
