<svg width="65" height="65" viewBox="0 0 65 65" fill="none" xmlns="http://www.w3.org/2000/svg">
<path d="M26.5 3.4641C30.2128 1.32051 34.7872 1.32051 38.5 3.4641L54.6458 12.7859C58.3586 14.9295 60.6458 18.891 60.6458 23.1782V41.8218C60.6458 46.109 58.3586 50.0705 54.6458 52.2141L38.5 61.5359C34.7872 63.6795 30.2128 63.6795 26.5 61.5359L10.3542 52.2141C6.64136 50.0705 4.35417 46.109 4.35417 41.8218V23.1782C4.35417 18.891 6.64136 14.9295 10.3542 12.7859L26.5 3.4641Z" fill="#F3F3F5"/>
<path d="M31.4578 30.0588H26.3244V45.7947H31.4578V30.0588Z" fill="#0F0FD1"/>
<path d="M38.7295 34.3226H33.5961V45.795H38.7295V34.3226Z" fill="#0F0FD1"/>
<path d="M46.002 27.1279H40.8686V45.7947H46.002V27.1279Z" fill="#0F0FD1"/>
<path d="M24.1854 35.9962H19.052V45.795H24.1854V35.9962Z" fill="#0F0FD1"/>
<path d="M21.6189 32.146C22.7999 32.146 23.7575 31.1883 23.7575 30.0079C23.7575 29.7279 23.7001 29.462 23.6021 29.2168L27.718 25.8564C28.0552 26.0777 28.4573 26.2089 28.8909 26.2089C29.4413 26.2089 29.9381 25.9951 30.3172 25.6537L34.0827 27.8687C34.0468 28.0232 34.0243 28.1822 34.0243 28.3478C34.0243 29.5291 34.9817 30.4867 36.1633 30.4867C37.3449 30.4867 38.3025 29.5294 38.3025 28.3478C38.3025 27.9951 38.2088 27.6675 38.0576 27.374L42.4457 23.0243C42.743 23.1809 43.0763 23.2779 43.4359 23.2779C44.6172 23.2779 45.5749 22.3203 45.5749 21.1398C45.5749 19.9585 44.6175 19 43.4359 19C42.2543 19 41.297 19.9585 41.297 21.1398C41.297 21.4923 41.3907 21.8202 41.5416 22.1136L37.1533 26.4625C36.8559 26.3059 36.5226 26.2089 36.163 26.2089C35.6123 26.2089 35.1161 26.4227 34.7367 26.764L30.9712 24.5493C31.0068 24.3945 31.0299 24.2355 31.0299 24.0699C31.0299 22.8886 30.0723 21.931 28.8912 21.931C27.7099 21.931 26.752 22.8886 26.752 24.0699C26.752 24.3502 26.8095 24.6158 26.9071 24.8611L22.7921 28.2211C22.455 27.9992 22.0525 27.8681 21.6192 27.8681C20.4379 27.8681 19.48 28.8263 19.48 30.0079C19.48 31.1883 20.4376 32.146 21.6189 32.146Z" fill="#0F0FD1"/>
</svg>
