<svg width="65" height="65" viewBox="0 0 65 65" fill="none" xmlns="http://www.w3.org/2000/svg">
<path d="M26.5 3.4641C30.2128 1.32051 34.7872 1.32051 38.5 3.4641L54.6458 12.7859C58.3586 14.9295 60.6458 18.891 60.6458 23.1782V41.8218C60.6458 46.109 58.3586 50.0705 54.6458 52.2141L38.5 61.5359C34.7872 63.6795 30.2128 63.6795 26.5 61.5359L10.3542 52.2141C6.64136 50.0705 4.35417 46.109 4.35417 41.8218V23.1782C4.35417 18.891 6.64136 14.9295 10.3542 12.7859L26.5 3.4641Z" fill="#F3F3F5"/>
<path d="M29.9164 31.4885C30.4914 31.4885 30.9575 31.0224 30.9575 30.4474C30.9575 29.8725 30.4914 29.4064 29.9164 29.4064C29.3415 29.4064 28.8754 29.8725 28.8754 30.4474C28.8754 31.0224 29.3415 31.4885 29.9164 31.4885Z" fill="#0F0FD1"/>
<path d="M35.8856 27.7309C36.2902 27.7309 36.6182 27.403 36.6182 26.9984C36.6182 26.5938 36.2902 26.2658 35.8856 26.2658C35.481 26.2658 35.153 26.5938 35.153 26.9984C35.153 27.403 35.481 27.7309 35.8856 27.7309Z" fill="#0F0FD1"/>
<path d="M44.9284 36.0258L42.6739 31.7218V30.3369C42.6739 30.3369 42.6739 30.3369 42.6739 30.3367C42.6739 24.628 38.0459 20 32.3369 20C26.628 20 22 24.628 22 30.3367C22 33.3088 23.2562 35.9861 25.2643 37.8718V47.2025H37.5054V43.9382H40.4977C41.6946 43.9382 42.6739 42.9589 42.6739 41.762V37.9536H43.762C44.9589 37.9536 45.4836 37.0862 44.9284 36.0258ZM33.906 32.2912L33.5086 32.9808L32.3239 32.7566L31.7725 33.2188L31.7875 34.4244L31.0399 34.697L30.2764 33.7634H29.5569L28.7933 34.697L28.0452 34.4249L28.0604 33.2188L27.5096 32.7566L26.3247 32.9808L25.9267 32.2917L26.7131 31.3774L26.5882 30.6691L25.5363 30.0793L25.6745 29.2954L26.8646 29.1006L27.2242 28.4779L26.798 27.3501L27.4076 26.8384L28.4443 27.4543L29.1203 27.2084L29.5185 26.0702H30.3144L30.7127 27.2084L31.3887 27.4543L32.4251 26.8384L33.0347 27.3498L32.6087 28.4777L32.9683 29.1009L34.1579 29.2956L34.2966 30.0791L33.2447 30.6694L33.1198 31.3777L33.906 32.2912ZM38.6115 28.1129L38.2135 28.8022L37.1254 28.5797L36.6339 28.8637L36.2832 29.9167H35.4873L35.1361 28.8637L34.644 28.5797L33.5564 28.8022L33.1585 28.1129L33.8954 27.2824V26.7147L33.1585 25.8842L33.5564 25.1949L34.6445 25.4174L35.1361 25.1337L35.4875 24.0804H36.2835L36.6341 25.1334L37.1262 25.4171L38.2138 25.1946L38.6117 25.8839L37.8748 26.7147V27.2824L38.6115 28.1129Z" fill="#0F0FD1"/>
</svg>
