<svg width="239" height="192" viewBox="0 0 239 192" fill="none" xmlns="http://www.w3.org/2000/svg">
<path d="M16.334 176.204H304.985V176.349H16.334V176.204Z" fill="#EBEBEB"/>
<path d="M157.132 180.136H206.186V180.28H157.132V180.136Z" fill="#EBEBEB"/>
<path d="M45.2567 186.094H70.1904V186.238H45.2567V186.094Z" fill="#EBEBEB"/>
<path d="M72.0783 186.094H78.9886V186.238H72.0783V186.094Z" fill="#EBEBEB"/>
<path d="M90.8694 183.657H104.147V183.802H90.8694V183.657Z" fill="#EBEBEB"/>
<path d="M110.821 183.657H138.786V183.802H110.821V183.657Z" fill="#EBEBEB"/>
<path d="M122.979 118.284H125.438V176.314H122.979V118.284Z" fill="#F0F0F0"/>
<path d="M150.516 119.94H219.21V132.474H150.516V119.94Z" fill="#E0E0E0"/>
<path d="M190.564 176.36H220.006C220.12 176.36 220.228 176.315 220.308 176.235C220.388 176.155 220.434 176.046 220.434 175.933C220.434 175.82 220.388 175.711 220.308 175.631C220.228 175.551 220.12 175.506 220.006 175.506H190.564C186.309 175.506 185.738 174.265 185.738 169.334V107.165C185.745 107.105 185.739 107.044 185.721 106.987C185.703 106.929 185.672 106.876 185.632 106.831C185.592 106.786 185.543 106.75 185.488 106.725C185.433 106.701 185.374 106.688 185.313 106.688C185.253 106.688 185.193 106.701 185.138 106.725C185.083 106.75 185.034 106.786 184.994 106.831C184.954 106.876 184.924 106.929 184.906 106.987C184.888 107.044 184.882 107.105 184.889 107.165V169.334C184.906 174.605 185.709 176.36 190.564 176.36Z" fill="#E0E0E0"/>
<path d="M123.649 118.509H216.566V122.862H123.649V118.509Z" fill="#F0F0F0"/>
<path d="M215.896 118.284H245.731V176.314H215.896V118.284Z" fill="#F5F5F5"/>
<path d="M215.902 118.284H218.361V176.314H215.902V118.284Z" fill="#F0F0F0"/>
<path d="M237.025 53.1349H267.541V176.32H237.025V53.1349Z" fill="#FAFAFA"/>
<path d="M188.82 118.284H195.252L193.693 105.756H187.25L188.82 118.284Z" fill="#F0F0F0"/>
<path d="M187.395 118.284H193.831L192.261 105.756H185.83L187.395 118.284Z" fill="#F5F5F5"/>
<path d="M173.585 118.284H178.244L179.133 116.863H174.48L173.585 118.284Z" fill="#F0F0F0"/>
<path d="M148.652 118.284H176.818L177.707 116.863H152.45L148.652 118.284Z" fill="#FAFAFA"/>
<path d="M209.228 114.687H207.19C206.718 114.687 206.251 114.78 205.815 114.961C205.379 115.142 204.983 115.407 204.649 115.741C204.316 116.075 204.051 116.471 203.871 116.908C203.691 117.344 203.599 117.812 203.599 118.284H212.836C212.836 117.33 212.457 116.415 211.783 115.74C211.108 115.066 210.194 114.687 209.24 114.687H209.228Z" fill="#F0F0F0"/>
<path d="M186.615 112.02H193.046L192.261 105.756H185.83L186.615 112.02Z" fill="#F0F0F0"/>
<path d="M210.273 110.519H164.701C164.618 110.52 164.536 110.504 164.459 110.473C164.382 110.441 164.313 110.395 164.254 110.336C164.195 110.278 164.149 110.208 164.118 110.131C164.086 110.055 164.071 109.972 164.071 109.89C164.069 109.863 164.069 109.836 164.071 109.809L167.587 81.7403C167.599 81.5831 167.67 81.4361 167.785 81.329C167.901 81.2219 168.053 81.1626 168.211 81.163H213.771C213.938 81.163 214.098 81.2293 214.216 81.3473C214.334 81.4653 214.401 81.6254 214.401 81.7923C214.404 81.8191 214.404 81.8462 214.401 81.8731L210.885 109.97C210.865 110.12 210.792 110.257 210.68 110.357C210.568 110.457 210.423 110.515 210.273 110.519Z" fill="#F0F0F0"/>
<path d="M209.586 110.519H164.054C163.971 110.52 163.889 110.504 163.812 110.473C163.736 110.441 163.666 110.395 163.607 110.336C163.549 110.278 163.503 110.208 163.471 110.131C163.44 110.055 163.424 109.972 163.425 109.89C163.422 109.863 163.422 109.836 163.425 109.809L166.929 81.7403C166.946 81.5841 167.019 81.4393 167.135 81.333C167.251 81.2268 167.401 81.1663 167.558 81.163H213.096C213.263 81.163 213.423 81.2293 213.541 81.3473C213.659 81.4653 213.725 81.6254 213.725 81.7923C213.728 81.8191 213.728 81.8462 213.725 81.8731L210.215 109.947C210.202 110.105 210.13 110.251 210.013 110.357C209.896 110.463 209.744 110.521 209.586 110.519Z" fill="#F5F5F5"/>
<path d="M164.897 108.966L168.165 82.6929C168.17 82.65 168.192 82.6109 168.225 82.5831C168.258 82.5553 168.3 82.5409 168.344 82.5428H212.074C212.097 82.5412 212.119 82.5442 212.14 82.5515C212.162 82.5589 212.181 82.5704 212.198 82.5855C212.215 82.6006 212.228 82.6189 212.238 82.6394C212.247 82.6598 212.252 82.6819 212.253 82.7044V82.739L208.968 109.006C208.964 109.049 208.944 109.089 208.912 109.118C208.88 109.147 208.838 109.162 208.795 109.162H165.07C165.047 109.161 165.024 109.156 165.002 109.146C164.981 109.137 164.961 109.123 164.945 109.106C164.929 109.089 164.917 109.068 164.908 109.046C164.9 109.024 164.896 109.001 164.897 108.977V108.966Z" fill="#E0E0E0"/>
<path d="M181.535 118.284H192.019V118.151C192.019 117.875 191.909 117.61 191.715 117.414C191.52 117.218 191.256 117.107 190.98 117.106H182.597C182.32 117.106 182.054 117.216 181.858 117.412C181.662 117.608 181.552 117.874 181.552 118.151V118.284H181.535Z" fill="#FAFAFA"/>
<path d="M190.801 118.284H197.907V118.151C197.908 118.014 197.882 117.878 197.83 117.751C197.778 117.625 197.702 117.509 197.605 117.412C197.508 117.315 197.394 117.238 197.267 117.185C197.141 117.133 197.005 117.106 196.868 117.106H191.834C191.558 117.107 191.294 117.218 191.099 117.414C190.904 117.61 190.795 117.875 190.795 118.151V118.284H190.801Z" fill="#F0F0F0"/>
<path d="M139.351 147.299H120.248C118.503 147.295 116.828 146.608 115.581 145.386C114.334 144.164 113.614 142.503 113.575 140.758L112.859 105.814C112.834 104.521 113.324 103.271 114.22 102.339C115.117 101.407 116.346 100.869 117.639 100.843H129.699C130.896 100.841 132.052 101.281 132.945 102.077C133.839 102.874 134.408 103.972 134.543 105.161L139.351 147.299Z" fill="#E6E6E6"/>
<path d="M128.908 147.299H149.269C149.522 147.299 149.764 147.198 149.943 147.02C150.122 146.841 150.222 146.599 150.222 146.346V146.254C150.222 145.562 149.947 144.898 149.458 144.409C148.968 143.919 148.305 143.644 147.613 143.644H128.908V147.305V147.299Z" fill="#E6E6E6"/>
<path d="M130.542 176.793C130.64 176.795 130.736 176.763 130.813 176.702C130.89 176.641 130.943 176.555 130.963 176.458L136.927 147.726H147.318L153.276 176.458C153.309 176.562 153.379 176.649 153.473 176.704C153.567 176.759 153.678 176.777 153.784 176.755C153.89 176.732 153.985 176.671 154.049 176.584C154.113 176.496 154.142 176.387 154.13 176.279L148.092 147.212C148.073 147.114 148.019 147.026 147.941 146.963C147.863 146.901 147.765 146.868 147.665 146.872H136.592C136.493 146.87 136.396 146.903 136.319 146.965C136.242 147.028 136.189 147.115 136.17 147.212L130.138 176.279C130.126 176.334 130.125 176.39 130.135 176.444C130.144 176.499 130.165 176.551 130.195 176.598C130.225 176.644 130.264 176.685 130.31 176.716C130.355 176.748 130.407 176.77 130.461 176.782L130.542 176.793Z" fill="#E6E6E6"/>
<path d="M136.99 176.793H137.077C137.188 176.771 137.285 176.706 137.348 176.611C137.411 176.517 137.434 176.402 137.412 176.291L131.373 147.218C131.352 147.121 131.298 147.034 131.22 146.972C131.142 146.91 131.045 146.876 130.946 146.877H119.873C119.775 146.878 119.679 146.912 119.602 146.974C119.526 147.036 119.473 147.122 119.452 147.218L113.419 176.291C113.407 176.347 113.407 176.404 113.418 176.46C113.429 176.516 113.451 176.569 113.482 176.616C113.513 176.664 113.554 176.705 113.601 176.736C113.648 176.768 113.701 176.791 113.757 176.802C113.812 176.813 113.87 176.814 113.926 176.803C113.981 176.792 114.035 176.77 114.082 176.739C114.129 176.707 114.17 176.667 114.202 176.62C114.234 176.573 114.256 176.52 114.267 176.464L120.248 147.732H130.64L136.598 176.464C136.619 176.554 136.669 176.634 136.74 176.693C136.811 176.752 136.898 176.787 136.99 176.793Z" fill="#E6E6E6"/>
<path d="M197.694 0H198.121V15.1369H197.694V0Z" fill="#F0F0F0"/>
<path d="M46.8623 191.972H48.3136C48.3136 188.899 48.3136 181.1 48.4686 163.213C48.7222 130.801 49.2295 128.83 49.2295 128.83L45.7773 143.796C43.5792 160.357 46.3973 177.027 46.8623 191.972Z" fill="#CF8B61"/>
<path d="M39.3939 133.895C31.6322 126.227 16.4826 125.2 1.00231 124.553C-5.07049 124.301 17.963 135.972 29.5121 144.712C38.4381 151.496 43.9431 153.098 46.9184 160.415C47.2634 150.921 46.0776 140.507 39.3939 133.895Z" fill="#70DCAD"/>
<path d="M48.9732 121.932C54.2339 111.942 67.4647 102.527 82.3125 98.9341C88.1338 97.5327 68.8014 117.375 61.471 130.182C55.7647 140.129 48.197 151.8 47.0256 160.194C45.2505 143.6 43.7269 131.921 48.9732 121.932Z" fill="#4DC390"/>
<path d="M48.3337 201.496C45.845 201.491 43.4521 200.536 41.6436 198.827C39.8351 197.117 38.7475 194.782 38.6028 192.297L37.7117 183.486H58.8982L58.007 192.297C57.863 194.772 56.7835 197.099 54.9872 198.807C53.191 200.515 50.8124 201.477 48.3337 201.496Z" fill="#9F5440"/>
<path d="M60.2852 186.878H36.3462L35.6563 177.061H60.968L60.2852 186.878Z" fill="#B76C58"/>
<path d="M93.2529 23.3189C93.2529 23.3189 89.5812 22.4992 89.0617 17.7653C88.5825 13.372 90.5395 12.5003 90.5395 12.5003C90.5395 12.5003 88.0398 8.00886 92.2137 5.42831C96.3876 2.84777 102.778 6.2885 105.238 5.12234C107.697 3.95619 110.433 4.60854 109.654 8.07236C108.875 11.5362 105.226 12.4368 105.226 12.4368L96.8033 10.9589C96.8033 10.9589 100.435 20.4266 98.2812 22.2105C96.1278 23.9944 93.2529 23.3189 93.2529 23.3189Z" fill="#263238"/>
<path d="M107.928 9.36554C107.928 9.36554 109.747 16.4317 107.928 17.6498C106.11 18.8679 105.717 10.4105 105.717 10.4105L107.928 9.36554Z" fill="#263238"/>
<path d="M94.5288 77.8048L92.7218 81.6727L89.5178 81.2109C86.4985 81.6958 85.24 79.9812 85.24 79.9812L83.3407 78.2493C72.7241 68.3082 70.9344 63.2394 71.8466 59.2387C72.8107 55.0129 79.2072 42.5835 81.1354 39.6913C83.0636 36.799 84.5184 36.0081 84.5184 36.0081C88.0168 34.5013 90.6666 35.5866 91.8848 39.3276C92.8719 42.3526 90.632 45.5105 88.9059 47.7908C86.7825 50.5823 84.8204 53.4928 83.0289 56.5081C82.4516 57.5011 81.8743 58.5113 81.3317 59.5274C81.095 59.9661 79.7903 61.8712 79.9346 62.258C80.8236 64.7347 85.292 71.7662 86.8622 74.2024L87.4049 75.0453C93.201 75.8766 94.5288 77.8048 94.5288 77.8048Z" fill="#263238"/>
<path d="M154.834 36.9549L151.468 38.8773C151.468 38.8773 150.741 40.309 149.54 42.3123C146.809 46.8787 141.642 54.4356 137.076 54.9436C131.078 55.4459 124.774 52.6691 118.441 48.4201C112.108 44.1712 114.342 34.4494 114.342 34.4494C114.342 34.4494 118.123 35.5116 123.977 39.8414C129.831 44.1712 134.796 46.8152 136.239 47.3752C136.239 47.3752 141.204 45.7761 146.578 39.5297L148.102 34.6341L153.154 32.9022L154.834 36.9549Z" fill="#263238"/>
<path d="M84.3048 50.8735C84.5242 51.1853 90.2164 79.1267 90.2164 79.1267H116.807C116.807 79.1267 117.044 62.0443 117.482 57.9917C117.921 53.939 120.611 37.2088 114.342 34.4493C114.342 34.4493 107.957 32.931 103.246 32.8675C100.41 32.8291 97.5772 33.0708 94.7886 33.5891C94.7886 33.5891 86.6313 34.0221 84.5126 35.9965C82.3939 37.9708 84.3048 50.8735 84.3048 50.8735Z" fill="#263238"/>
<path d="M116.807 78.7516C116.807 78.7516 116.357 119.053 115.15 128.694C113.943 138.335 110.815 179.999 110.815 179.999L102.917 178.1C102.917 178.1 102.34 147.774 101.514 132.712C100.689 117.65 100.873 99.8058 100.873 99.8058C100.873 99.8058 95.1003 137.331 92.8777 140.944C90.6551 144.558 81.6145 165.445 75.7838 175.883L69.3526 170.26C69.3526 170.26 79.8249 136.926 81.6145 131.303C83.4042 125.681 84.9629 83.9646 90.2164 79.1268L116.807 78.7516Z" fill="#407BFF"/>
<path d="M74.8082 174.659L73.2033 177.112L71.0384 180.426L66.6162 178.128L68.429 174.468L69.7799 171.755L74.8082 174.659Z" fill="#CE7A63"/>
<path d="M154.834 36.9549L151.468 38.8773C151.468 38.8773 150.741 40.309 149.54 42.3123L146.578 39.5297L148.103 34.6341L153.154 32.9022L154.834 36.9549Z" fill="#CE7A63"/>
<path opacity="0.3" d="M116.801 78.7516C116.801 78.7516 116.357 119.053 115.15 128.688C113.943 138.323 110.815 179.999 110.815 179.999L103.015 178.688C103.015 178.688 102.294 147.774 101.497 132.706C101.272 128.411 100.873 125.144 100.787 122.632C100.7 120.121 100.717 115.705 100.787 111.381C100.862 105.123 101 99.038 101 99.038L100.827 100.146C100.827 100.308 100.775 100.487 100.741 100.678L100.706 100.908C99.4763 108.679 94.7886 137.792 92.8835 140.921C90.6493 144.558 81.6145 165.445 75.7838 175.883L69.3526 170.26C69.3526 170.26 79.8018 136.921 81.6088 131.303C83.4157 125.686 84.9571 83.9646 90.2106 79.1211L116.801 78.7516Z" fill="black"/>
<path opacity="0.2" d="M100.804 100.141C100.804 100.302 100.752 100.481 100.717 100.672L100.804 100.141Z" fill="black"/>
<path opacity="0.2" d="M102.068 92.0526C102.068 92.0526 101.918 103.599 100.764 111.375C100.839 105.117 100.977 99.0322 100.977 99.0322L102.068 92.0526Z" fill="black"/>
<path d="M104.349 31.7649C105.123 32.369 106.004 32.8215 106.947 33.0985C106.947 33.0985 105.601 34.7149 101.289 34.3974C99.609 34.2704 97.473 35.1883 94.7943 33.5892C94.7943 33.5892 95.9143 27.1927 95.4236 23.4056C95.4236 23.4056 90.9957 21.5062 92.0521 18.6255C93.0104 16.0045 95.9951 19.0123 96.5378 19.5838C96.0066 18.9084 92.8199 14.6537 95.1407 11.1725C95.8838 10.0612 96.8621 9.12672 98.0064 8.43537C99.1506 7.74402 100.433 7.31265 101.762 7.17181L105.422 8.15323L106.895 11.617C106.895 11.617 108.863 14.2842 109.002 19.6242C109.14 24.9643 106.052 26.8578 103.806 27.4929C103.806 27.4929 103.742 28.0702 103.742 28.8495C103.714 29.8944 103.812 31.2742 104.349 31.7649Z" fill="#CE7A63"/>
<path d="M105.509 20.0457L104.932 15.7332L107.362 19.1278C107.132 19.399 106.849 19.6203 106.531 19.7781C106.212 19.936 105.864 20.027 105.509 20.0457Z" fill="#BA4D3C"/>
<path d="M101.289 20.317C101.626 20.7544 102.084 21.0832 102.607 21.2628C103.129 21.4424 103.693 21.4648 104.227 21.3273" stroke="#263238" stroke-linecap="round" stroke-linejoin="round"/>
<path d="M100.186 14.3534C100.186 14.3534 100.879 12.8409 102.299 13.0718" stroke="#263238" stroke-linecap="round" stroke-linejoin="round"/>
<path d="M106.427 12.5061C106.85 12.4508 107.28 12.4969 107.681 12.6404C108.083 12.7839 108.444 13.0209 108.736 13.3316" stroke="#263238" stroke-linecap="round" stroke-linejoin="round"/>
<path d="M102.773 16.3163C102.773 16.7378 102.559 17.0784 102.299 17.0784C102.04 17.0784 101.826 16.7378 101.826 16.3163C101.826 15.8949 102.04 15.5601 102.299 15.5601C102.559 15.5601 102.773 15.9007 102.773 16.3163Z" fill="#263238"/>
<path d="M107.576 16.0045C107.576 16.4202 107.362 16.7608 107.102 16.7608C106.843 16.7608 106.629 16.4202 106.629 16.0045C106.629 15.5889 106.843 15.2425 107.102 15.2425C107.362 15.2425 107.576 15.5831 107.576 16.0045Z" fill="#263238"/>
<path d="M99.5802 36.3603L103.286 35.7945L104.193 39.3795L102.467 42.5893H101.474L99.5802 39.7086V36.3603Z" fill="#407BFF"/>
<path d="M101.474 42.5893L99.5802 59.5274L103.044 62.8642L105.544 59.4523L102.467 42.5893H101.474Z" fill="#407BFF"/>
<path opacity="0.3" d="M99.5802 36.3603L103.286 35.7945L104.193 39.3795L102.467 42.5893H101.474L99.5802 39.7086V36.3603Z" fill="black"/>
<path opacity="0.3" d="M101.474 42.5893L99.5802 59.5274L103.044 62.8642L105.544 59.4523L102.467 42.5893H101.474Z" fill="black"/>
<path d="M101.289 34.3974L103.165 39.3391C103.165 39.3391 108.015 36.9202 108.725 32.8675L105.261 31.6783C104.056 32.747 102.721 33.6605 101.289 34.3974Z" fill="white"/>
<path d="M95.1235 31.355C95.1235 31.355 98.4776 33.1215 101.289 34.3974L100.186 39.3391C100.186 39.3391 94.6328 36.0138 92.7681 33.416L95.1235 31.355Z" fill="white"/>
<path opacity="0.2" d="M103.783 27.4755C103.783 27.4755 103.719 28.0528 103.719 28.8321C102.765 28.5965 101.843 28.2416 100.977 27.7757C101.923 27.904 102.886 27.801 103.783 27.4755Z" fill="black"/>
<path d="M96.5666 19.5838C97.1944 17.081 96.971 14.4405 95.9316 12.0788C95.9316 12.0788 102.519 13.9666 102.536 7.96844C102.536 7.96844 93.7494 9.37129 93.2991 12.4945C92.8488 15.6177 95.8161 18.7351 96.5666 19.5838Z" fill="#263238"/>
<path d="M102.438 8.85164C102.438 8.85164 104.955 12.4251 107.114 11.6862V6.49048H99.6091L95.643 8.85742L98.391 11.6862L100.435 10.0062L102.438 8.85164Z" fill="#263238"/>
<path d="M110.289 186.494L104.655 186.205L104.516 181.933L104.412 178.815L108.973 178.359L109.874 178.4L110.07 182.256L110.289 186.494Z" fill="#CE7A63"/>
<path opacity="0.2" d="M110.07 182.256L104.516 181.933L104.412 178.815L108.973 178.359L109.874 178.4L110.07 182.256Z" fill="black"/>
<path d="M101.353 180.865L112.189 180.599L112.8 177.066H101.607L101.353 180.865Z" fill="#263238"/>
<path d="M111.502 186.73C111.502 186.73 113.389 181.165 114.861 181.719C116.334 182.273 111.502 186.73 111.502 186.73Z" stroke="#407BFF" stroke-miterlimit="10"/>
<path d="M111.825 186.73C111.825 186.73 114.677 184.017 115.825 185.073C116.974 186.13 111.825 186.73 111.825 186.73Z" stroke="#407BFF" stroke-miterlimit="10"/>
<path opacity="0.2" d="M74.8082 174.659L73.2033 177.112L68.429 174.468L69.7799 171.755L74.8082 174.659Z" fill="black"/>
<path d="M67.3666 172.442L75.6451 176.824L77.5964 174.422L69.162 169.683L67.3666 172.442Z" fill="#263238"/>
<path d="M72.6374 181.898C72.6374 181.898 74.9813 178.966 75.9338 179.658C76.8864 180.351 72.6374 181.898 72.6374 181.898Z" stroke="#407BFF" stroke-miterlimit="10"/>
<path d="M73.0646 181.898C73.0646 181.898 77.1058 180.946 77.2789 182.256C77.4521 183.567 73.0646 181.898 73.0646 181.898Z" stroke="#407BFF" stroke-miterlimit="10"/>
<path d="M72.1468 178.769L67.7997 176.327C67.4962 176.159 67.1385 176.117 66.8044 176.211C66.4703 176.305 66.1869 176.528 66.0158 176.83L64.0588 180.293C63.8885 180.597 63.8458 180.956 63.94 181.292C64.0341 181.627 64.2575 181.912 64.561 182.083L76.898 189.011C77.202 189.181 77.5611 189.224 77.8966 189.129C78.2321 189.035 78.5165 188.812 78.6876 188.508C78.8396 188.237 78.8905 187.92 78.8313 187.615C78.7721 187.31 78.6067 187.035 78.3643 186.84C76.771 185.564 73.5034 182.631 72.7818 179.595C72.7383 179.421 72.6595 179.258 72.5502 179.116C72.441 178.974 72.3036 178.856 72.1468 178.769Z" fill="#263238"/>
<path d="M109.77 184.329H103.997C103.593 184.33 103.207 184.491 102.923 184.777C102.638 185.063 102.478 185.45 102.478 185.853V190.471C102.478 190.874 102.638 191.26 102.923 191.545C103.208 191.83 103.594 191.989 103.997 191.989H120.369C120.569 191.99 120.767 191.952 120.952 191.876C121.137 191.8 121.305 191.688 121.446 191.547C121.588 191.406 121.7 191.238 121.777 191.054C121.854 190.869 121.893 190.671 121.893 190.471C121.893 190.111 121.765 189.763 121.532 189.488C121.3 189.214 120.978 189.03 120.623 188.97C118.285 188.583 113.332 187.475 110.878 184.825C110.737 184.671 110.566 184.548 110.375 184.462C110.185 184.377 109.978 184.331 109.77 184.329Z" fill="#263238"/>
<path d="M94.5289 77.8047L92.7219 81.6726L89.5179 81.2108C86.4986 81.6957 85.2401 79.9812 85.2401 79.9812L83.3408 78.2492L86.8681 74.2081L87.4107 75.051C93.2011 75.8765 94.5289 77.8047 94.5289 77.8047Z" fill="#CE7A63"/>
<path d="M146.578 39.2756L145.458 40.765L148.738 43.6284L149.702 42.3122L146.578 39.2756Z" fill="white"/>
<path d="M83.1963 78.4109L86.9777 73.9888L85.7018 72.3666L81.7531 77.1178L83.1963 78.4109Z" fill="white"/>
<path d="M155.792 7.78438C155.402 8.94453 155.275 10.1771 155.421 11.3924C155.567 12.6077 155.981 13.7753 156.635 14.8102C158.875 18.2047 158.367 6.98193 158.367 6.98193L155.792 7.78438Z" fill="#263238"/>
<path d="M160.382 33.2376C160.382 33.2376 146.526 52.635 143.819 51.821C141.111 51.007 134.871 38.9067 134.871 38.9067L134.507 34.1209L130.42 28.4922L125.224 32.591L127.741 37.273C127.741 37.273 128.491 39.7034 130.708 40.3846C130.708 40.3846 135.806 56.0353 142.254 58.9738C148.703 61.9122 157.651 43.2654 157.651 43.2654L160.382 33.2376Z" fill="#FFB573"/>
<path d="M190.044 174.59L182.891 177.309C173.654 157.023 166.149 97.8609 166.149 97.8609C166.149 97.8609 165.93 99.5177 165.601 102.185C164.527 111.018 162.252 130.871 162.714 137.978C163.447 149.934 161.334 179.48 161.334 179.48L152.675 180.508C152.675 180.508 152.969 151.302 151.734 135.12C150.498 118.938 154.28 77.4186 154.28 77.4186L178.163 76.3217C182.262 81.0325 183.283 139.011 184.311 144.34C185.339 149.668 190.044 174.59 190.044 174.59Z" fill="#263238"/>
<path d="M151.924 36.13C151.982 35.8123 152.104 35.5096 152.281 35.2398C152.459 34.97 152.689 34.7387 152.958 34.5597C154.892 33.2665 159.851 30.0452 161.184 29.9413C162.858 29.8085 171.61 27.7533 175.08 29.9413C178.549 32.1293 180.743 38.5604 180.743 38.5604C180.743 38.5604 180.489 68.2857 178.942 77.9382L154.239 77.4244C154.239 77.4244 150.354 44.8415 151.924 36.13Z" fill="#407BFF"/>
<path d="M179.589 46.9255L183.445 54.0032C183.445 54.0032 183.959 69.9599 182.677 74.0761L180.743 77.9382V84.1327L185.362 84.7735L186.649 79.8837C186.649 79.8837 187.417 76.2814 186.649 74.74C186.649 74.74 192.052 62.3857 190.113 51.7056C190.113 51.7056 180.362 30.2068 174.381 29.6122C168.4 29.0176 179.589 46.9255 179.589 46.9255Z" fill="#FFB573"/>
<path d="M171.714 29.6411C171.714 29.6411 167.898 33.3243 164.417 33.2204C160.936 33.1165 161.889 30.1491 161.889 30.1491C163.678 29.8143 164.261 28.0247 164.429 26.489C164.511 25.7215 164.511 24.9474 164.429 24.1798C164.429 24.1798 160.278 24.1798 157.946 19.1111C155.613 14.0424 157.946 7.363 157.946 7.363C157.946 7.363 166.761 5.13461 170.71 6.2488C174.658 7.363 171.524 17.2868 171.524 17.2868C170.496 22.8578 171.714 29.6411 171.714 29.6411Z" fill="#FFB573"/>
<path d="M163.978 12.6453C163.978 13.0436 163.759 13.3669 163.493 13.3669C163.228 13.3669 163.014 13.0436 163.014 12.6453C163.014 12.2469 163.228 11.9236 163.493 11.9236C163.759 11.9236 163.978 12.2469 163.978 12.6453Z" fill="#263238"/>
<path d="M159.06 13.1244C159.06 13.5227 158.846 13.846 158.58 13.846C158.315 13.846 158.096 13.5227 158.096 13.1244C158.096 12.7261 158.315 12.4028 158.58 12.4028C158.846 12.4028 159.06 12.7087 159.06 13.1244Z" fill="#263238"/>
<path d="M160.688 13.4708V17.3445C160.369 17.4434 160.029 17.4457 159.709 17.3512C159.39 17.2566 159.106 17.0695 158.892 16.8134L160.688 13.4708Z" fill="#ED893E"/>
<path d="M162.333 18.02C162.333 18.02 164.388 18.02 165.139 16.3285" stroke="#263238" stroke-linecap="round" stroke-linejoin="round"/>
<path d="M163.014 9.86262C163.014 9.86262 164.804 9.71829 165.323 10.8325" stroke="#263238" stroke-linecap="round" stroke-linejoin="round"/>
<path d="M156.901 11.2251C157.042 10.8732 157.27 10.5631 157.564 10.3237C157.857 10.0844 158.207 9.9237 158.581 9.85687" stroke="#263238" stroke-linecap="round" stroke-linejoin="round"/>
<path opacity="0.2" d="M167.575 23.562C166.761 24.761 165.688 25.7614 164.434 26.4889C164.517 25.7214 164.517 24.9473 164.434 24.1797C165.512 24.1817 166.579 23.9718 167.575 23.562Z" fill="black"/>
<path d="M163.39 33.3416L165.485 33.1453L166.074 37.5213L164.983 39.5245H163.736L162.57 37.3539L163.39 33.3416Z" fill="#263238"/>
<path d="M171.46 27.8802C169.372 29.9784 167.001 31.7756 164.417 33.2203L165.664 36.3146C165.664 36.3146 170.894 35.414 173.134 29.208L171.46 27.8802Z" fill="white"/>
<path d="M164.417 33.2203L163.014 36.3146C163.014 36.3146 160.89 34.219 160.382 30.1721L163.014 28.4922C163.014 28.4922 163.112 31.523 164.417 33.2203Z" fill="white"/>
<path d="M163.828 38.3699L162.402 56.8725L164.798 59.7821L167.009 56.6935L164.85 38.3699H163.828Z" fill="#263238"/>
<path d="M173.302 14.51C173.302 14.51 168.245 15.1219 167.408 7.79596C167.408 7.79596 158.5 10.4573 155.284 7.72668C152.069 4.99604 154.678 1.44563 154.678 1.44563C154.954 2.13645 155.284 2.80436 155.665 3.4431V1.13389C156.206 1.84411 156.802 2.51011 157.449 3.12558C160.043 3.54311 162.702 3.02985 164.954 1.67655C168.816 -0.632662 173.729 3.74907 172.823 7.12629C172.851 7.14361 177.204 10.5381 173.302 14.51Z" fill="#263238"/>
<path d="M169.832 14.7178C169.832 14.7178 171.195 9.88579 173.434 11.5888C175.674 13.2919 172.482 18.0489 170.923 17.7775C169.364 17.5062 169.832 14.7178 169.832 14.7178Z" fill="#FFB573"/>
<path d="M130.553 41.4123L135.425 38.7221C135.425 38.7221 140.661 48.8364 143.698 50.1065C143.698 50.1065 149.869 43.8774 151.901 36.078L154.667 49.0789C154.667 49.0789 149.881 59.1874 143.831 59.3318C137.78 59.4761 132.821 47.9647 130.553 41.4123Z" fill="#407BFF"/>
<path d="M176.125 42.9017L183.468 54.6902L182.244 72.9503L187.769 74.0299C187.769 74.0299 192.024 61.3292 190.136 51.7171C188.768 44.7375 184.444 35.8875 179.427 31.6558C177.644 30.1942 175.437 29.346 173.134 29.2369C173.134 29.2369 171.778 32.3659 171.847 35.01C171.916 37.654 176.125 42.9017 176.125 42.9017Z" fill="#407BFF"/>
<path opacity="0.2" d="M180.547 49.991L176.125 42.9017C176.506 43.5137 180.547 55.764 180.547 55.764V49.991Z" fill="black"/>
<path opacity="0.2" d="M166.149 97.861C166.149 97.861 165.93 99.5178 165.601 102.185L164.446 88.145L166.149 97.861Z" fill="black"/>
<path d="M187.07 183.336L191.55 181.252L190.263 177.737L189.322 175.168L185.466 176.293L184.75 176.617L185.852 179.821L187.07 183.336Z" fill="#FFB573"/>
<path opacity="0.2" d="M185.852 179.821L190.263 177.737L189.322 175.168L185.466 176.293L184.75 176.617L185.852 179.821Z" fill="black"/>
<path d="M186.158 183.925C186.158 183.925 182.798 180.023 181.782 180.952C180.766 181.882 186.158 183.925 186.158 183.925Z" stroke="#407BFF" stroke-miterlimit="10"/>
<path d="M185.898 184.006C185.898 184.006 182.689 182.736 182.1 183.971C181.511 185.207 185.898 184.006 185.898 184.006Z" stroke="#407BFF" stroke-miterlimit="10"/>
<path d="M186.782 181.408L191.464 179.515C191.791 179.383 192.156 179.387 192.481 179.524C192.805 179.661 193.062 179.922 193.196 180.248L194.708 184.006C194.774 184.168 194.807 184.341 194.806 184.516C194.805 184.69 194.769 184.863 194.701 185.024C194.633 185.185 194.534 185.331 194.409 185.453C194.285 185.576 194.137 185.673 193.975 185.738L180.668 191.113C180.506 191.179 180.332 191.213 180.157 191.211C179.982 191.21 179.809 191.174 179.648 191.105C179.486 191.037 179.341 190.937 179.218 190.811C179.096 190.685 179 190.537 178.936 190.374C178.817 190.082 178.806 189.757 178.904 189.458C179.003 189.159 179.204 188.904 179.473 188.74C181.24 187.66 184.911 185.132 186.031 182.176C186.095 182.002 186.194 181.844 186.324 181.711C186.453 181.579 186.609 181.476 186.782 181.408Z" fill="#263238"/>
<path d="M154.337 187.753L159.273 187.631L159.493 183.891L159.654 181.16L155.671 180.658L154.886 180.669L154.62 184.046L154.337 187.753Z" fill="#FFB573"/>
<path opacity="0.2" d="M154.62 184.046L159.493 183.891L159.654 181.16L155.671 180.658L154.886 180.669L154.62 184.046Z" fill="black"/>
<path d="M153.264 187.932C153.264 187.932 151.74 183.013 150.441 183.463C149.142 183.914 153.264 187.932 153.264 187.932Z" stroke="#407BFF" stroke-miterlimit="10"/>
<path d="M152.981 187.926C152.981 187.926 150.545 185.478 149.517 186.379C148.489 187.279 152.981 187.926 152.981 187.926Z" stroke="#407BFF" stroke-miterlimit="10"/>
<path d="M154.84 185.871L159.891 186.003C160.066 186.008 160.239 186.047 160.399 186.118C160.559 186.189 160.703 186.291 160.824 186.418C160.945 186.546 161.039 186.695 161.102 186.859C161.165 187.022 161.195 187.197 161.19 187.372L161.08 191.413C161.076 191.588 161.037 191.76 160.966 191.92C160.894 192.079 160.792 192.224 160.665 192.344C160.538 192.464 160.388 192.558 160.225 192.62C160.061 192.682 159.887 192.711 159.712 192.706L145.366 192.331C145.191 192.326 145.019 192.287 144.859 192.216C144.699 192.145 144.555 192.043 144.435 191.915C144.315 191.788 144.221 191.639 144.159 191.475C144.097 191.312 144.068 191.137 144.073 190.962C144.082 190.647 144.204 190.345 144.415 190.11C144.627 189.875 144.915 189.723 145.228 189.681C147.283 189.392 151.653 188.526 153.858 186.269C153.986 186.139 154.139 186.037 154.308 185.969C154.477 185.9 154.658 185.867 154.84 185.871Z" fill="#263238"/>
<path d="M182.735 179.318L180.258 175.006L191.037 171.017L191.793 176.732L182.735 179.318Z" fill="#407BFF"/>
<path d="M151.474 176.697V182.274H162.783L163.216 176.697H151.474Z" fill="#407BFF"/>
<path d="M211.842 44.3848C211.842 44.3848 208.563 57.3163 205.099 61.3228C205.099 61.3228 198.813 55.0418 196.902 49.5747C196.902 49.5747 196.723 47.023 194.898 45.9319L192.168 42.1968L187.613 43.8363L188.704 47.4791L193.444 50.1232C193.444 50.1232 199.453 66.6975 204.915 66.6052C210.376 66.5128 212.841 59.2272 212.841 59.2272L215.843 43.64L211.842 44.3848Z" fill="#FF8B7B"/>
<path d="M193.553 51.676L196.925 49.5746C196.925 49.5746 202.663 58.95 205.348 60.832C205.348 60.832 208.69 54.7357 209.833 49.719C210.433 46.9892 211.171 44.2916 212.044 41.6367L215.866 47.173C215.866 47.173 213.355 64.8039 208.159 66.5935C202.964 68.3831 200.025 63.3087 198.842 61.3112C197.658 59.3137 193.553 51.676 193.553 51.676Z" fill="#263238"/>
<path d="M222.447 178.59C222.447 178.804 225.911 183.699 225.911 183.699L229.537 179.012L225.628 173.475L222.447 178.59Z" fill="#FF8B7B"/>
<path d="M224.277 181.829L228.03 177.759C228.294 177.475 228.659 177.307 229.047 177.292C229.434 177.277 229.811 177.416 230.097 177.678L233.353 180.692C233.494 180.821 233.608 180.978 233.688 181.152C233.769 181.326 233.814 181.514 233.821 181.705C233.829 181.897 233.799 182.088 233.732 182.268C233.665 182.447 233.564 182.612 233.433 182.753L222.765 194.299C222.501 194.581 222.137 194.748 221.751 194.763C221.365 194.778 220.989 194.64 220.704 194.38C220.449 194.145 220.286 193.827 220.244 193.484C220.202 193.14 220.283 192.793 220.473 192.503C221.72 190.604 224.168 186.39 223.896 182.932C223.88 182.731 223.906 182.53 223.971 182.34C224.037 182.15 224.141 181.976 224.277 181.829Z" fill="#263238"/>
<path d="M214.671 176.316L225.201 167.079L229.075 175.121L221.876 181.379L214.671 176.316Z" fill="#407BFF"/>
<path d="M210.821 71.6507C210.821 71.6507 199.465 121.224 199.274 133.116C199.084 145.009 209.458 165.636 216.016 175.294L224.849 168.268L212.05 137.094L217.991 98.2759L224.849 176.928L233.324 178.013C233.324 178.013 234.403 148.27 233.324 137.457C232.244 126.645 238.248 89.8704 233.803 75.8073L210.821 71.6507Z" fill="#263238"/>
<path d="M233.832 75.7958C233.832 75.7958 235.766 57.3567 239.478 50.1346L240.921 41.7811C240.921 41.7811 238.237 38.4789 232.152 38.5828C226.067 38.6867 223.388 38.0055 223.388 38.0055C223.388 38.0055 215.439 37.4686 213.574 39.2236C211.71 40.9786 211.617 48.9223 211.305 52.7383C210.994 56.5543 210.266 74.0985 210.266 74.0985L233.832 75.7958Z" fill="#407BFF"/>
<path d="M233.295 37.9709C233.295 37.9709 224.15 48.6799 225.882 75.7958L236.574 77.6316L235.119 66.3857L241.972 45.828C241.972 45.828 243.409 39.4257 233.295 37.9709Z" fill="#263238"/>
<path d="M222.869 37.9709C222.869 37.9709 213.02 45.1641 212.264 72.765L207.109 72.9093L211.329 50.8332C210.588 48.8408 210.491 46.6661 211.051 44.6157C211.629 42.6298 212.252 40.2975 213.58 39.2006C215.693 37.4514 219.059 37.6015 222.869 37.9709Z" fill="#263238"/>
<path d="M234.935 44.4483C234.935 44.4483 241.066 59.3311 239.553 65.3524C239.553 65.3524 228.977 62.6333 224.099 57.9052C224.099 57.9052 222.569 55.3246 220.057 55.1341L215.231 52.6575L211.317 56.7679L214.377 60.0123L220.727 60.2952C220.727 60.2952 235.737 74.5257 241.429 71.5584C244.091 70.1671 245.234 67.4653 245.695 64.9829C246.126 62.5469 245.992 60.0445 245.303 57.6685L241.233 43.1031L234.935 44.4483Z" fill="#FF8B7B"/>
<path d="M220.34 61.7154L224.52 56.8545C224.52 56.8545 233.803 64.013 239.53 65.3524C239.03 60.4621 238.259 55.6033 237.221 50.7986L234.334 45.828L234.6 43.7382L241.597 42.8318C241.597 42.8318 247.947 60.5839 246.261 66.9804C244.575 73.3769 240.956 74.0119 234.859 71.6507C228.763 69.2896 220.34 61.7154 220.34 61.7154Z" fill="#263238"/>
<path d="M233.439 190.87H227.626L227.291 186.032L227.124 183.613L227.025 182.216L233.434 182.753V186.032L233.439 190.87Z" fill="#FF8B7B"/>
<path d="M227.378 188.705H232.914C233.301 188.705 233.673 188.859 233.947 189.132C234.221 189.406 234.374 189.778 234.374 190.165V194.605C234.373 194.991 234.218 195.361 233.945 195.634C233.671 195.906 233.3 196.059 232.914 196.059H217.188C216.997 196.06 216.807 196.023 216.63 195.95C216.453 195.878 216.291 195.771 216.156 195.635C216.02 195.5 215.912 195.34 215.839 195.163C215.765 194.986 215.728 194.796 215.728 194.605C215.727 194.259 215.849 193.924 216.072 193.66C216.295 193.395 216.605 193.219 216.946 193.161C219.191 192.792 223.948 191.73 226.304 189.178C226.44 189.029 226.606 188.91 226.791 188.829C226.976 188.747 227.176 188.705 227.378 188.705Z" fill="#263238"/>
<path opacity="0.1" d="M233.295 37.9709C232.241 39.3639 231.35 40.8727 230.639 42.4681C228.57 47.0359 227.183 51.8832 226.523 56.8545L233.295 51.3701L231.823 46.6535L240.061 40.6727C240.061 40.6727 237.908 38.4847 233.295 37.9709Z" fill="white"/>
<path opacity="0.1" d="M214.879 53.1251C214.879 53.1251 218.141 41.4925 222.869 37.9709C222.869 37.9709 217.263 37.1916 214.683 38.502L215.26 46.6535L212.853 47.4098L214.879 53.1251Z" fill="white"/>
<path d="M240.176 18.7121C241.285 21.4889 240.096 24.6121 240.205 27.5967C240.251 28.9592 240.575 30.2985 240.609 31.6379C240.644 32.9772 240.332 34.4551 239.334 35.3846C238.433 36.2332 237.146 36.4872 235.933 36.7124C234.04 37.053 231.984 37.3763 230.287 36.4757C229.895 36.2678 229.537 36.0023 229.133 35.8291C228.294 35.5428 227.398 35.4655 226.523 35.6039C225.65 35.7445 224.758 35.7013 223.902 35.4769C221.2 34.5359 223.059 30.8181 223.521 28.913C224.233 25.9957 224.941 23.0803 225.646 20.1669C228.561 19.5896 231.453 18.7813 234.374 18.1925C235.329 17.9204 236.333 17.8769 237.307 18.0655C238.219 18.3426 239.264 19.0065 240.176 18.7121Z" fill="#263238"/>
<path d="M240.251 24.4504C240.025 25.2088 239.539 25.863 238.878 26.2978C238.202 26.6557 238.098 27.2907 238.156 28.0297C238.277 29.7616 239.218 32.2093 235.979 33.5949C235.504 33.8328 234.97 33.9284 234.441 33.87C233.913 33.8116 233.413 33.6018 233.001 33.2658C230.726 31.4704 230.004 26.4363 230.004 26.4363L225.882 14.5497C225.896 14.5239 225.913 14.5005 225.934 14.4804L225.969 14.4169C225.983 14.3932 226.001 14.3718 226.021 14.3534C226.167 14.1501 226.327 13.9572 226.5 13.7761C226.629 13.6264 226.766 13.4838 226.91 13.3489C228.417 11.9518 231.528 10.1679 235.991 13.1468C240.892 16.4259 241.314 21.6158 240.251 24.4504Z" fill="#263238"/>
<path d="M240.488 25.4549C240.54 26.8347 239.27 27.6256 238.179 28.0586C237.646 28.2594 237.095 28.4083 236.534 28.5031C235.518 30.1946 233.318 31.3896 233.318 31.3896C233.154 32.0167 233.056 32.6589 233.024 33.3062C232.965 34.8728 233.063 36.4413 233.318 37.9882L231.829 40.2974C225.623 43.1377 223.412 37.9882 223.412 37.9882C225.686 37.7457 226.414 35.8348 226.627 34.2299C226.715 33.4936 226.715 32.7494 226.627 32.0131C225.619 31.5886 224.726 30.9299 224.024 30.0916C223.321 29.2533 222.828 28.2595 222.586 27.1926C221.853 24.0867 222.453 21.1656 223.741 18.2964C224.258 17.1515 224.878 16.0559 225.594 15.0231L225.882 14.5554C225.896 14.5297 225.913 14.5063 225.934 14.4862C225.959 14.4412 225.988 14.3987 226.021 14.3592V14.3187C226.125 14.186 226.275 13.9955 226.471 13.7876H226.506L234.294 12.7773L237.677 15.4791L238.86 22.1758L237.128 24.2368L236.407 25.097L236.228 25.3048L236.453 25.1143C237.827 23.9597 239.582 23.3824 240.223 24.4735C240.388 24.7747 240.48 25.1112 240.488 25.4549Z" fill="#FF8B7B"/>
<path d="M229.97 20.4556C229.872 20.8655 229.571 21.1483 229.306 21.0848C229.04 21.0213 228.896 20.6345 228.994 20.2189C229.092 19.8032 229.392 19.5261 229.664 19.5896C229.935 19.6531 230.074 20.0399 229.97 20.4556Z" fill="#263238"/>
<path d="M225.536 19.2605C225.438 19.6762 225.138 19.9591 224.866 19.8956C224.595 19.8321 224.456 19.4395 224.555 19.0296C224.653 18.6197 224.953 18.3311 225.224 18.3946C225.496 18.4581 225.634 18.8564 225.536 19.2605Z" fill="#263238"/>
<path d="M229.733 19.6184L228.665 19.0411C228.665 19.0411 228.85 20.1322 229.733 19.6184Z" fill="#263238"/>
<path d="M225.305 18.458L224.237 17.8807C224.237 17.8807 224.439 18.9776 225.305 18.458Z" fill="#263238"/>
<path d="M226.621 19.7512L225.605 23.4055C225.468 23.4487 225.324 23.4636 225.181 23.4495C225.038 23.4355 224.899 23.3927 224.773 23.3237C224.646 23.2547 224.536 23.1609 224.447 23.048C224.357 22.9351 224.292 22.8054 224.254 22.6666L226.621 19.7512Z" fill="#FF5652"/>
<path d="M226.841 25.9457C226.841 25.9457 229.363 26.321 230.085 24.2138" stroke="#263238" stroke-linecap="round" stroke-linejoin="round"/>
<path d="M230.004 17.5921C230.218 17.4801 230.452 17.413 230.693 17.3947C230.933 17.3765 231.175 17.4075 231.403 17.4858C231.631 17.5642 231.841 17.6883 232.019 17.8505C232.197 18.0127 232.341 18.2096 232.441 18.4291" stroke="#263238" stroke-linecap="round" stroke-linejoin="round"/>
<path d="M226.489 16.0796C226.298 15.9523 226.083 15.8671 225.857 15.8297C225.631 15.7922 225.4 15.8034 225.179 15.8624C224.957 15.9214 224.751 16.0269 224.574 16.1719C224.397 16.3168 224.252 16.4979 224.151 16.7031" stroke="#263238" stroke-linecap="round" stroke-linejoin="round"/>
<path d="M239.472 22.2683L236.482 25.0913H236.436C231.436 23.4748 232.441 14.238 232.441 14.238C231.026 15.1386 226.015 14.6421 225.882 14.5382C226.153 14.1377 226.465 13.7663 226.812 13.4297C227.031 13.2161 227.73 13.2797 228.018 13.2566L229.86 13.1122L233.589 12.812C233.699 12.812 234.219 12.6793 234.311 12.7543L237.694 15.4561L239.472 22.2683Z" fill="#263238"/>
<path opacity="0.2" d="M229.173 32.4057C228.521 33.2583 227.625 33.8925 226.604 34.2242C226.692 33.4879 226.692 32.7437 226.604 32.0074C227.435 32.2708 228.301 32.4051 229.173 32.4057Z" fill="black"/>
<path opacity="0.3" d="M216.744 106.595L217.385 90.1129L218.02 98.2644L216.744 106.595Z" fill="black"/>
<path opacity="0.1" d="M233.434 183.313V186.032H227.291L227.124 183.613L233.434 183.313Z" fill="black"/>
<path d="M223.614 176.714L225.103 185.056H234.236L235.494 176.316L223.614 176.714Z" fill="#407BFF"/>
</svg>
